 <svg xmlns="http://www.w3.org/2000/svg" width="82px" height="82px" version="1.1" viewBox="0 0 82 82"><g id="page1" fill="none" fill-rule="evenodd" stroke="none" stroke-width="1"><g id="index" fill="#000000" fill-rule="nonzero" transform="translate(-751 -217)"><g id="menu" transform="translate(187 196)"><g id="Group-5" transform="translate(551 21)"><g id="anything" transform="translate(13)"><path id="Shape" d="M12.027 12.042c-15.844 15.844-15.844 41.623 0 57.467 7.922 7.922 18.328 11.883 28.733 11.883 10.405 0 20.812-3.961 28.733-11.883 15.844-15.844 15.844-41.623 0-57.467-15.844-15.844-41.622-15.844-57.466 0zM68.08 68.095c-15.064 15.064-39.574 15.064-54.639 0-15.064-15.063-15.064-39.575 0-54.639C20.973 5.924 30.867 2.158 40.76 2.158s19.787 3.766 27.319 11.298c15.065 15.064 15.065 39.575.001 54.639z"/><path id="Shape" d="M40.76 5.342c-19.539 0-35.434 15.896-35.434 35.434 0 19.539 15.896 35.435 35.434 35.435 19.538 0 35.434-15.896 35.434-35.435S60.299 5.342 40.76 5.342zm0 68.868c-18.436 0-33.434-14.999-33.434-33.435S22.325 7.342 40.76 7.342c18.435 0 33.434 14.998 33.434 33.433 0 18.435-14.998 33.435-33.434 33.435z"/><path id="Shape" d="M28.176 34.683l.263.062a3.969 3.969 0 0 1 2.794 2.419l.099.253a5.937 5.937 0 0 0 5.574 3.797 5.932 5.932 0 0 0 5.099-2.882l.14-.23a3.974 3.974 0 0 1 3.166-1.91l.269-.016a5.935 5.935 0 0 0 5.152-3.639 5.936 5.936 0 0 0-.982-6.229 4.486 4.486 0 0 1-.946-4.065 5.935 5.935 0 0 0-1.869-6.024 5.937 5.937 0 0 0-6.227-.991l-.25.104a3.965 3.965 0 0 1-3.685-.316l-.225-.144a5.938 5.938 0 0 0-6.307-.086 5.942 5.942 0 0 0-2.868 5.62l.023.266a3.974 3.974 0 0 1-1.439 3.407l-.208.17a5.936 5.936 0 0 0-2.029 5.972 5.939 5.939 0 0 0 4.456 4.462zm-1.157-8.889l.208-.17a5.978 5.978 0 0 0 2.164-5.123l-.023-.266c-.13-1.541.583-2.938 1.907-3.737a3.962 3.962 0 0 1 2.054-.584c.738 0 1.475.214 2.142.642l.225.144a5.97 5.97 0 0 0 5.537.477l.25-.104c1.427-.601 2.975-.354 4.143.658 1.169 1.013 1.634 2.511 1.243 4.007a6.484 6.484 0 0 0 1.368 5.878c1.011 1.171 1.255 2.72.654 4.145-.602 1.425-1.883 2.33-3.427 2.421l-.269.016a5.97 5.97 0 0 0-4.76 2.87l-.14.23c-.8 1.324-2.195 2.039-3.74 1.902-1.541-.132-2.797-1.07-3.36-2.509l-.099-.253a5.974 5.974 0 0 0-4.201-3.64l-.263-.062c-1.506-.353-2.614-1.462-2.965-2.969-.349-1.506.155-2.992 1.352-3.973z"/><path id="Shape" d="M34.094 32.43a6.324 6.324 0 0 0 4.809.796 6.376 6.376 0 0 0 4.76-7.646 6.328 6.328 0 0 0-2.837-3.963 6.324 6.324 0 0 0-4.809-.796 6.324 6.324 0 0 0-3.963 2.837 6.33 6.33 0 0 0-.797 4.809 6.328 6.328 0 0 0 2.837 3.963zm-.343-7.715a4.343 4.343 0 0 1 2.719-1.946 4.345 4.345 0 0 1 3.299.546 4.34 4.34 0 0 1 1.946 2.719 4.374 4.374 0 0 1-3.265 5.245 4.342 4.342 0 0 1-3.299-.546 4.34 4.34 0 0 1-1.946-2.719 4.341 4.341 0 0 1 .546-3.299zM44.41 61.837c.017-.016.038-.021.054-.038a1 1 0 0 0-.057-1.413c-1.134-1.047-1.469-1.747-1.857-2.559-.417-.87-.889-1.856-2.305-3.163-1.416-1.308-2.437-1.699-3.337-2.045-.839-.322-1.564-.602-2.698-1.647-1.133-1.046-1.468-1.746-1.855-2.557-.417-.87-.888-1.856-2.303-3.162-1.415-1.307-2.436-1.698-3.337-2.044-.839-.322-1.563-.601-2.697-1.646-1.133-1.046-1.468-1.746-1.855-2.557-.417-.87-.888-1.856-2.303-3.162a1 1 0 0 0-1.413.056c-.006.007-.007.015-.013.022-.005.006-.013.008-.019.013l-5.316 5.759c-.041.044-.058.099-.09.148-.046.035-.099.057-.139.1a1 1 0 0 0 .057 1.413c1.133 1.046 1.468 1.746 1.855 2.557.417.87.888 1.856 2.303 3.162 1.415 1.307 2.436 1.698 3.337 2.044.839.322 1.563.601 2.697 1.646 1.133 1.046 1.468 1.746 1.856 2.557.417.87.888 1.856 2.303 3.162 1.416 1.308 2.437 1.699 3.337 2.045.839.323 1.564.602 2.698 1.647 1.134 1.047 1.469 1.747 1.857 2.559.417.87.889 1.856 2.305 3.163a.997.997 0 0 0 1.413-.055c.031-.034.043-.076.069-.113.033-.027.073-.04.103-.073l5.315-5.758c.015-.019.02-.042.035-.061zM20.357 39.869c.416.87.888 1.856 2.303 3.162 1.416 1.307 2.436 1.698 3.337 2.044.839.322 1.563.601 2.697 1.646 1.133 1.047 1.468 1.746 1.855 2.557.417.87.888 1.856 2.303 3.162 1.416 1.308 2.437 1.699 3.337 2.045.839.323 1.564.602 2.698 1.647 1.134 1.047 1.469 1.747 1.857 2.559.337.704.72 1.488 1.601 2.452l-1.43 1.549c-.599-.683-.863-1.232-1.156-1.845-.417-.87-.889-1.856-2.305-3.163-1.416-1.308-2.437-1.699-3.337-2.045-.839-.322-1.564-.602-2.698-1.647-1.133-1.046-1.468-1.746-1.856-2.557-.416-.87-.888-1.855-2.303-3.161-1.416-1.308-2.437-1.699-3.337-2.045-.839-.322-1.563-.601-2.697-1.646-1.133-1.046-1.467-1.746-1.855-2.556-.337-.704-.719-1.487-1.599-2.451l1.43-1.549c.599.682.862 1.231 1.155 1.842zm16.615 24c-.417-.87-.889-1.856-2.305-3.163-1.416-1.308-2.437-1.699-3.337-2.045-.839-.322-1.564-.602-2.698-1.647-1.133-1.047-1.468-1.746-1.855-2.557-.417-.87-.889-1.856-2.304-3.162-1.415-1.307-2.436-1.698-3.336-2.045-.839-.321-1.564-.6-2.697-1.646-1.133-1.047-1.468-1.746-1.855-2.557-.337-.704-.719-1.487-1.599-2.451l1.43-1.549c.598.682.861 1.231 1.154 1.842.416.87.888 1.855 2.303 3.161 1.415 1.307 2.436 1.698 3.336 2.044.839.322 1.564.601 2.698 1.647 1.133 1.046 1.467 1.746 1.855 2.556.416.87.888 1.856 2.303 3.162 1.416 1.308 2.437 1.699 3.337 2.045.839.323 1.564.602 2.698 1.647 1.134 1.047 1.469 1.747 1.857 2.559.337.704.72 1.488 1.601 2.452l-1.43 1.549c-.599-.68-.863-1.229-1.156-1.842z"/><path id="Shape" d="M62.588 27.526c-.854.383-1.597 1.03-2.141 1.856-1.868-.473-4.012.621-5.048 2.693a5.66 5.66 0 0 0-.374.96c-1.373.287-2.632 1.289-3.347 2.719a5.392 5.392 0 0 0-.542 1.808c-1.429.232-2.76 1.245-3.514 2.752-.551 1.102-.715 2.323-.464 3.44.119.527.323 1.004.601 1.415-.734.431-1.554 1.113-2.077 2.17-.843 1.703-.675 3.834.501 6.332 2.527 5.369.93 9.437.506 10.341l-.053.106-.057.114-.003.006-2.429 4.856a1 1 0 1 0 1.789.894l2.43-4.858.061-.12c.364-.67 2.732-4.609 8.737-5.849 2.704-.559 4.51-1.701 5.367-3.398.544-1.077.588-2.168.482-3.022a4.183 4.183 0 0 0 1.393-.362c1.044-.469 1.923-1.334 2.474-2.436.739-1.479.763-3.13.123-4.407a5.406 5.406 0 0 0 1.148-1.545c.827-1.653.738-3.553-.147-4.863.124-.187.236-.381.337-.581.551-1.102.715-2.323.464-3.44-.189-.841-.595-1.553-1.171-2.075.349-.944.428-1.945.218-2.874-.269-1.19-.97-2.123-1.976-2.626-1.007-.504-2.173-.506-3.288-.006zm3.312 3.072c.151.668.043 1.416-.302 2.106l-.097.175a1 1 0 0 0 .448 1.399c.45.232.771.682.903 1.269.151.668.043 1.416-.302 2.106-.15.301-.343.577-.574.823a1.001 1.001 0 0 0 .079 1.445c.756.646.888 2.012.305 3.176a3.264 3.264 0 0 1-1.231 1.358 1 1 0 0 0-.218 1.542c.653.698.727 1.953.177 3.052-.345.69-.879 1.225-1.504 1.505-.555.249-1.115.261-1.573.03a1 1 0 1 0-1.165 1.591c.156.475.432 1.626-.104 2.687-.568 1.125-1.909 1.912-3.985 2.341-2.267.468-4.085 1.276-5.521 2.182l2.874-5.746 4.43-1.475c.524-.175.807-.741.633-1.266a1.005 1.005 0 0 0-1.265-.633l-2.532.843 1.621-3.241 4.43-1.476a1 1 0 0 0-.632-1.899l-2.532.844 1.739-3.477 4.43-1.476a.999.999 0 0 0 .632-1.265.998.998 0 0 0-1.265-.632l-2.532.844 1.846-3.692a1 1 0 1 0-1.789-.894l-1.82 3.64-.818-2.456a1 1 0 0 0-1.898.633l1.451 4.354-1.739 3.477-.819-2.456a.999.999 0 1 0-1.897.633l1.451 4.353-1.621 3.242-.818-2.456a1 1 0 0 0-1.898.633l1.451 4.353-2.829 5.656c-.14-1.642-.578-3.512-1.528-5.53-.898-1.909-1.076-3.45-.525-4.578.677-1.389 2.313-1.775 2.324-1.778a1 1 0 0 0 .237-1.873c-.459-.229-.786-.683-.919-1.277-.15-.668-.043-1.416.302-2.105.559-1.116 1.624-1.807 2.582-1.683a1.001 1.001 0 0 0 1.125-1.09c-.06-.593.062-1.21.35-1.786.508-1.018 1.457-1.697 2.363-1.697h.024a1 1 0 0 0 .992-.873c.049-.38.164-.753.342-1.108.667-1.332 2.075-2.034 3.072-1.538l.114.068c.249.153.558.176.835.087.278-.088.51-.308.625-.576a2.67 2.67 0 0 1 .07-.156c.345-.689.879-1.224 1.504-1.504.555-.249 1.114-.262 1.574-.03.456.228.783.681.917 1.275z"/></g></g></g></g></g></svg>