<svg xmlns="http://www.w3.org/2000/svg" width="18px" height="14px" version="1.1" viewBox="0 0 18 14"><g id="Symbols" fill="none" fill-rule="evenodd" stroke="none" stroke-width="1"><g id="add" fill="#979797" transform="translate(-76 -9)"><path id="check" d="M82.117 22.684l-5.87-5.836a.857.857 0 0 1-.247-.633c0-.258.082-.469.246-.633l1.3-1.266a.784.784 0 0 1 .616-.28c.246 0 .463.093.65.28l3.938 3.938 8.437-8.438a.893.893 0 0 1 .65-.28c.247 0 .452.093.616.28l1.3 1.266a.857.857 0 0 1 .247.633.857.857 0 0 1-.246.633L83.383 22.684a.803.803 0 0 1-.633.28.803.803 0 0 1-.633-.28z"/></g></g></svg>