<svg xmlns="http://www.w3.org/2000/svg" width="61" height="80"><g fill="#000" fill-rule="evenodd"><path d="M6.667 37.391c-.354 0-.693.138-.943.382a1.29 1.29 0 0 0-.39.923V67.39c0 .72.596 1.305 1.333 1.305.736 0 1.333-.584 1.333-1.305V38.696c0-.346-.14-.678-.39-.923a1.348 1.348 0 0 0-.943-.382zM52.444 38.696V67.39c0 .72.597 1.305 1.334 1.305.736 0 1.333-.584 1.333-1.305V38.696c0-.72-.597-1.305-1.333-1.305-.737 0-1.334.584-1.334 1.305z"/><path fill-rule="nonzero" d="M2.747 6.667v16.85l-.319-.371a1.4 1.4 0 0 0-1.522-.4A1.336 1.336 0 0 0 0 24v44.736a6.563 6.563 0 0 0 1.591 4.267l3.125 3.639c1.824 2.13 4.533 3.362 7.387 3.358h36.238c2.855.004 5.563-1.227 7.388-3.358l3.124-3.639a6.563 6.563 0 0 0 1.591-4.267V24c0-.561-.362-1.062-.905-1.253a1.4 1.4 0 0 0-1.523.399l-.319.371v-4.85c-.007-3.9-2.908-7.228-6.869-7.88V8c1.517-.002 2.746-1.195 2.748-2.667V2.667C53.574 1.195 52.345.002 50.828 0h-8.242c-1.517.002-2.746 1.195-2.748 2.667v2.666C39.84 6.805 41.07 7.998 42.586 8v2.787c-3.592.594-6.357 3.404-6.803 6.914a11.192 11.192 0 0 0-2.813-.368c-1.93.006-3.826.505-5.495 1.446V12c-.005-3.68-3.077-6.662-6.869-6.667a6.936 6.936 0 0 0-4.121 1.368v-.034C16.485 2.985 13.41 0 9.616 0 5.823 0 2.747 2.985 2.747 6.667zm54.95 62.069c0 .935-.339 1.841-.955 2.56l-3.125 3.639c-1.303 1.522-3.237 2.4-5.276 2.398H12.103c-2.039.003-3.973-.876-5.276-2.398l-3.124-3.639a3.938 3.938 0 0 1-.956-2.56V27.678l3.329 3.87c.054.05.113.096.176.137.054.056.112.108.175.154.013.008.027.007.04.014.092.043.188.075.287.097.071.027.145.048.22.062.095.005.19 0 .284-.015.079-.002.157-.01.235-.024.08-.028.157-.063.23-.105.088-.035.171-.079.25-.131.011-.01.026-.01.037-.02.053-.054.1-.111.143-.173.058-.051.11-.108.158-.168l.418-.685c.198-.288.53-.462.887-.462s.69.174.887.462a3.727 3.727 0 0 0 2.373 1.683c.995.223 2.04.04 2.892-.505.129-.066.246-.151.347-.252.338-.26.627-.572.857-.926.197-.288.53-.461.887-.461.356 0 .69.173.886.461.683 1.102 1.91 1.776 3.235 1.776 1.324 0 2.552-.674 3.234-1.776.197-.288.53-.461.887-.461s.69.173.887.461c.682 1.102 1.91 1.776 3.234 1.776 1.325 0 2.552-.674 3.235-1.776.197-.288.53-.461.886-.461.357 0 .69.173.887.461.683 1.102 1.91 1.776 3.235 1.776 1.324 0 2.552-.674 3.234-1.776.197-.288.53-.461.887-.461.356 0 .69.173.887.461.683 1.103 1.911 1.777 3.237 1.776 1.325-.001 2.553-.676 3.234-1.78.187-.299.52-.482.88-.483.361-.001.696.18.884.478l.426.694c.107.107.207.221.3.34.011.01.026.012.038.02.078.053.162.097.25.132a.743.743 0 0 0 .464.129.782.782 0 0 0 .505-.047c.099-.022.195-.054.286-.097.013-.007.027-.007.04-.014.111-.104.229-.201.352-.291l3.328-3.87v41.058zM42.586 2.666l8.242.005v2.662h-8.242V2.667zM48.08 8v2.667h-2.748V8h2.748zm-4.121 5.333h5.495c3.033.003 5.491 2.39 5.494 5.334v8.045l-1.555 1.808a3.844 3.844 0 0 0-3.094-.948 3.777 3.777 0 0 0-2.706 1.737c-.197.288-.53.461-.887.461s-.69-.173-.887-.461a3.729 3.729 0 0 0-1.874-1.5c-.048-3.737-2.135-7.167-5.481-9.013v-.13c.003-2.944 2.461-5.33 5.495-5.333zm-7.455 7.446c2.823 1.282 4.646 4.015 4.694 7.04a3.727 3.727 0 0 0-1.848 1.49c-.197.288-.53.461-.886.461-.357 0-.69-.173-.887-.461-.683-1.102-1.91-1.776-3.235-1.776-1.324 0-2.552.674-3.234 1.776-.197.288-.53.461-.887.461-.356 0-.69-.173-.887-.461-.927-1.55-2.895-2.192-4.598-1.499a7.804 7.804 0 0 1 2.35-5.402c2.478-2.404 6.237-3.054 9.418-1.629zM20.606 8c2.275.002 4.119 1.792 4.121 4v8.973c-2.202 2.38-3.155 5.61-2.586 8.76-.406.079-.82-.09-1.048-.424-.93-1.554-2.903-2.194-4.608-1.495V12c.002-2.208 1.846-3.998 4.121-4zM9.616 2.667c2.275.002 4.119 1.792 4.121 4V29.77a1.034 1.034 0 0 1-.886-.462 3.767 3.767 0 0 0-2.706-1.74 3.834 3.834 0 0 0-3.094.952l-1.556-1.81V6.668c.002-2.208 1.846-3.998 4.121-4z"/><path d="M8.596 13.043c.393 0 .771-.152 1.05-.425l1.484-1.453a1.43 1.43 0 0 0-.01-2.044 1.508 1.508 0 0 0-2.09-.01l-1.484 1.453a1.43 1.43 0 0 0-.322 1.583c.23.542.771.896 1.372.896zM8.596 19.13c.393 0 .771-.152 1.05-.425l1.484-1.453a1.43 1.43 0 0 0-.01-2.044 1.508 1.508 0 0 0-2.09-.01l-1.484 1.453a1.43 1.43 0 0 0-.322 1.583c.23.542.771.896 1.372.896zM8.596 24.348c.393 0 .771-.153 1.05-.426l1.484-1.452a1.43 1.43 0 0 0-.01-2.045 1.508 1.508 0 0 0-2.09-.009L7.547 21.87a1.43 1.43 0 0 0-.322 1.582c.23.543.771.897 1.372.897zM19.262 19.13c.394 0 .772-.152 1.05-.425l1.485-1.453a1.43 1.43 0 0 0-.01-2.044 1.508 1.508 0 0 0-2.09-.01l-1.484 1.453a1.43 1.43 0 0 0-.322 1.583c.23.542.77.896 1.371.896zM19.262 24.348c.394 0 .772-.153 1.05-.426l1.485-1.452a1.43 1.43 0 0 0-.01-2.045 1.508 1.508 0 0 0-2.09-.009l-1.484 1.453a1.43 1.43 0 0 0-.322 1.582c.23.543.77.897 1.371.897z"/></g></svg>