<svg xmlns="http://www.w3.org/2000/svg" width="442px" height="367px" version="1.1" viewBox="0 0 442 367"><g id="Symbols" fill="none" fill-rule="evenodd" stroke="none" stroke-width="1"><g id="leaf" fill="#5D8C47" fill-rule="nonzero" transform="translate(-81 -104)"><path id="Oval" d="M289.002 406.996c0-22 17.157-27.586 24-30 54.07-19.07 102-91 102-164 0-48.666-36.834-124.333-110.5-227-.683 48.062-13.183 85.729-37.5 113-36.476 40.908-76 63-88 114-16.047 68.197 7.547 121.182 70.78 158.954-7.882-41.776-6.46-80.773 4.267-116.99 10.005-33.782 28.932-58.335 49.625-99.088 13.795-27.169 18.951-66.69 15.469-118.565 8.837 42.553 7.947 81.951-2.668 118.194-15.924 54.364-29.928 56.332-45.644 107.096-15.715 50.765-13.91 78.783-7.91 136.783 4 38.666 19.36 85.872 46.08 141.616l45-12c-20.666-14.666-37.166-33.666-49.5-57-18.5-35-15.5-54.876-15.5-65z" transform="rotate(53 294.566 263.496)"/></g></g></svg>