<svg xmlns="http://www.w3.org/2000/svg" width="459px" height="98px" version="1.1" viewBox="0 0 459 98"><g id="page1" fill="none" fill-rule="evenodd" stroke="none" stroke-width="1"><g id="design-system" transform="translate(-461 -27)"><g id="logo" transform="translate(461)"><g id="Group"><g id="leaf" fill="#5D8C47" fill-rule="nonzero" transform="translate(320.038)"><path id="Oval" d="M76.597 108.034c-.008-5.833 4.542-7.308 6.357-7.945 14.341-5.036 27.033-24.09 27.005-43.445-.02-12.904-9.823-32.98-29.41-60.23-.163 12.743-3.466 22.725-9.908 29.947-9.664 10.832-20.144 16.675-23.309 30.193-4.232 18.075 2.05 32.133 18.844 42.172-2.108-11.08-1.745-21.418 1.087-31.017 2.642-8.953 7.656-15.456 13.131-26.254 3.65-7.198 5.003-17.675 4.06-31.43 2.36 11.285 2.14 21.731-.663 31.337C79.586 55.77 75.87 56.286 71.72 69.74s-3.661 20.884-2.047 36.264c1.076 10.254 5.17 22.776 12.283 37.567l11.937-3.164c-5.49-3.897-9.876-8.941-13.158-15.133-4.923-9.287-4.134-14.556-4.138-17.24z" transform="rotate(53 78.007 69.992)"/></g><path id="grocery-store" fill="#585858" d="M136.113 96.416c.222 0 .407.074.555.222.148.148.222.346.222.592v16.628c0 2.568-.604 4.506-1.811 5.814-1.208 1.308-3.007 1.963-5.397 1.963-1.33 0-2.501-.124-3.511-.37a10.348 10.348 0 0 1-2.92-1.223c-.469-.296-.801-.561-.998-.796-.197-.234-.296-.475-.296-.722 0-.198.062-.358.185-.481a.65.65 0 0 1 .48-.186c.123 0 .444.149.961.445.863.518 1.75.95 2.662 1.296.911.346 2.082.518 3.511.518 1.823 0 3.216-.512 4.177-1.536.96-1.025 1.441-2.525 1.441-4.5v-3.888c-.517 1.284-1.324 2.265-2.42 2.944-1.097.679-2.422 1.018-3.974 1.018-1.577 0-2.976-.37-4.195-1.11-1.22-.741-2.169-1.79-2.847-3.149-.677-1.357-1.016-2.913-1.016-4.666 0-1.752.339-3.302 1.016-4.647.678-1.346 1.627-2.389 2.847-3.13 1.22-.74 2.618-1.11 4.195-1.11 1.528 0 2.834.333 3.918 1 1.084.666 1.897 1.617 2.44 2.851v-2.926c0-.567.258-.851.775-.851zm-7.133 16.22c1.996 0 3.554-.66 4.675-1.981 1.122-1.321 1.682-3.13 1.682-5.426 0-2.296-.56-4.098-1.682-5.406-1.12-1.309-2.68-1.963-4.675-1.963-1.972 0-3.53.654-4.676 1.963-1.146 1.308-1.719 3.11-1.719 5.406 0 2.321.573 4.136 1.72 5.444 1.145 1.309 2.703 1.963 4.675 1.963zm22.288-16.22c.296 0 .499.055.61.166.11.111.166.278.166.5 0 .42-.259.667-.776.741l-1.109.111c-1.799.173-3.154.84-4.066 2-.912 1.16-1.367 2.493-1.367 4v10.11c0 .27-.068.48-.204.629-.135.148-.326.222-.573.222-.246 0-.437-.074-.572-.222-.136-.148-.204-.358-.204-.63V97.267c0-.567.259-.851.776-.851.222 0 .407.074.555.222.148.148.222.358.222.63v2.666c1.06-2.123 2.981-3.284 5.766-3.481l.517-.037h.259zm10.35 18.553c-1.578 0-2.97-.383-4.177-1.148-1.208-.765-2.144-1.852-2.81-3.259-.665-1.407-.997-3.049-.997-4.925 0-1.852.332-3.481.997-4.888.666-1.408 1.602-2.494 2.81-3.26 1.207-.765 2.6-1.147 4.176-1.147 1.577 0 2.97.382 4.177 1.148 1.207.765 2.144 1.851 2.81 3.259.664 1.407.997 3.036.997 4.888 0 1.876-.333 3.518-.998 4.925s-1.602 2.494-2.809 3.259c-1.207.765-2.6 1.148-4.177 1.148zm-.038-1.518c2.046 0 3.616-.673 4.713-2.019 1.097-1.345 1.645-3.277 1.645-5.795 0-2.444-.56-4.352-1.682-5.722-1.121-1.37-2.667-2.055-4.639-2.055-1.971 0-3.517.685-4.638 2.055-1.122 1.37-1.682 3.278-1.682 5.722 0 2.518.548 4.45 1.645 5.795 1.096 1.346 2.642 2.019 4.638 2.019zm19.96 1.518c-1.577 0-2.982-.383-4.214-1.148-1.232-.765-2.187-1.852-2.864-3.259-.678-1.407-1.017-3.024-1.017-4.851 0-1.852.339-3.487 1.017-4.907.677-1.42 1.638-2.518 2.883-3.296 1.244-.777 2.667-1.166 4.269-1.166.912 0 1.799.117 2.661.351a6.796 6.796 0 0 1 2.292 1.093c.468.37.794.673.98.907.184.235.276.488.276.76a.67.67 0 0 1-.184.462.578.578 0 0 1-.444.204c-.123 0-.27-.056-.443-.167a9.437 9.437 0 0 1-.555-.389 10.833 10.833 0 0 0-2.014-1.259c-.678-.32-1.522-.481-2.532-.481-2.045 0-3.647.704-4.805 2.11-1.158 1.408-1.738 3.346-1.738 5.815 0 2.42.573 4.308 1.72 5.666 1.145 1.358 2.74 2.037 4.786 2.037 1.035 0 1.916-.16 2.643-.482a9.9 9.9 0 0 0 2.088-1.259c.468-.346.789-.518.961-.518.172 0 .32.061.444.185a.607.607 0 0 1 .184.444c0 .247-.086.47-.258.667-.173.197-.506.494-.998.889-.641.469-1.43.851-2.366 1.148a9.154 9.154 0 0 1-2.772.444zm24.062-3.777c.173 0 .32.068.444.203a.67.67 0 0 1 .185.463c0 .247-.093.488-.278.722-.184.235-.51.5-.98.797-1.773 1.061-3.61 1.592-5.506 1.592-2.686 0-4.8-.827-6.34-2.481s-2.31-3.926-2.31-6.814c0-1.852.345-3.481 1.035-4.888.69-1.408 1.664-2.5 2.92-3.278 1.257-.777 2.699-1.166 4.325-1.166 2.267 0 4.053.74 5.36 2.222 1.305 1.48 1.958 3.505 1.958 6.073 0 .444-.086.765-.258.963-.173.197-.48.296-.924.296h-12.715c.024 2.42.634 4.283 1.83 5.592 1.194 1.308 2.876 1.963 5.045 1.963 1.182 0 2.162-.16 2.938-.482.776-.32 1.534-.74 2.273-1.259.518-.346.85-.518.998-.518zm-6.505-13.406c-1.873 0-3.382.586-4.528 1.759-1.146 1.173-1.817 2.808-2.014 4.907h12.382c-.05-2.148-.58-3.796-1.59-4.944-1.01-1.148-2.427-1.722-4.25-1.722zm20.403-1.37c.296 0 .499.055.61.166.11.111.166.278.166.5 0 .42-.259.667-.776.741l-1.109.111c-1.799.173-3.154.84-4.066 2-.911 1.16-1.367 2.493-1.367 4v10.11c0 .27-.068.48-.204.629-.135.148-.326.222-.572.222-.247 0-.438-.074-.573-.222-.136-.148-.204-.358-.204-.63V97.267c0-.567.259-.851.777-.851.221 0 .406.074.554.222.148.148.222.358.222.63v2.666c1.06-2.123 2.981-3.284 5.766-3.481l.517-.037h.259zm18.37.518c.148-.345.382-.518.702-.518a.74.74 0 0 1 .518.203.694.694 0 0 1 .222.537c0 .074-.025.186-.074.334l-10.608 23.552c-.148.296-.37.445-.666.445a.714.714 0 0 1-.499-.186.62.62 0 0 1-.203-.481l.074-.296 2.661-5.851-7.762-17.183a1.177 1.177 0 0 1-.074-.334c0-.222.087-.407.259-.555a.882.882 0 0 1 .591-.222c.271 0 .48.148.629.444l7.133 16.11.074-.186 7.023-15.813zm19.997 18.035c-.961 0-1.922-.142-2.883-.426a9.905 9.905 0 0 1-2.588-1.166c-.493-.321-.825-.587-.998-.797a1.105 1.105 0 0 1-.258-.722.67.67 0 0 1 .184-.463.578.578 0 0 1 .444-.203c.123 0 .29.068.499.203.21.136.351.229.425.278.715.518 1.46.944 2.236 1.278.776.333 1.756.5 2.939.5 1.601 0 2.833-.297 3.696-.89.862-.592 1.294-1.431 1.294-2.517 0-.642-.154-1.173-.462-1.593-.308-.42-.814-.784-1.516-1.092-.702-.309-1.706-.611-3.012-.908-2.169-.493-3.721-1.123-4.658-1.888-.936-.765-1.404-1.778-1.404-3.037 0-1.53.597-2.777 1.793-3.74 1.195-.963 2.74-1.444 4.638-1.444.912 0 1.787.123 2.625.37a7.656 7.656 0 0 1 2.217 1.037c.469.346.807.648 1.017.907.21.26.314.525.314.796a.67.67 0 0 1-.185.463.578.578 0 0 1-.443.204c-.198 0-.518-.185-.961-.556a10.33 10.33 0 0 0-2.015-1.222c-.702-.32-1.583-.481-2.643-.481-1.38 0-2.495.327-3.345.981-.85.655-1.275 1.513-1.275 2.574 0 .642.136 1.167.407 1.574.27.407.733.76 1.386 1.055.653.297 1.583.58 2.79.852 1.7.42 3.007.846 3.918 1.278.912.432 1.559.95 1.94 1.555.383.605.574 1.376.574 2.315 0 1.48-.61 2.672-1.83 3.573-1.22.901-2.84 1.352-4.86 1.352zm19.146-1.518c.542.049.813.296.813.74 0 .543-.357.778-1.072.704l-.96-.074c-1.849-.124-3.204-.685-4.067-1.685-.862-1-1.293-2.55-1.293-4.648V98.12h-3.068a.604.604 0 0 1-.444-.185.607.607 0 0 1-.184-.444c0-.198.061-.364.184-.5a.578.578 0 0 1 .444-.204h3.068v-4.925c0-.272.074-.482.222-.63a.751.751 0 0 1 .554-.222c.222 0 .407.074.554.222.148.148.222.358.222.63v4.925h4.916c.173 0 .32.068.444.204a.717.717 0 0 1 .185.5c0 .172-.056.32-.167.444-.11.124-.265.185-.462.185h-4.916v10.406c0 1.68.327 2.876.98 3.592.653.716 1.67 1.136 3.05 1.26l.997.074zm11.052 1.518c-1.577 0-2.97-.383-4.177-1.148-1.207-.765-2.144-1.852-2.81-3.259-.664-1.407-.997-3.049-.997-4.925 0-1.852.333-3.481.998-4.888.665-1.408 1.602-2.494 2.809-3.26 1.207-.765 2.6-1.147 4.177-1.147 1.577 0 2.969.382 4.176 1.148 1.208.765 2.144 1.851 2.81 3.259.665 1.407.998 3.036.998 4.888 0 1.876-.333 3.518-.998 4.925-.666 1.407-1.602 2.494-2.81 3.259-1.207.765-2.6 1.148-4.176 1.148zm-.037-1.518c2.045 0 3.616-.673 4.712-2.019 1.097-1.345 1.645-3.277 1.645-5.795 0-2.444-.56-4.352-1.682-5.722-1.12-1.37-2.667-2.055-4.638-2.055-1.972 0-3.518.685-4.639 2.055-1.121 1.37-1.682 3.278-1.682 5.722 0 2.518.548 4.45 1.645 5.795 1.097 1.346 2.643 2.019 4.639 2.019zm21.18-17.035c.295 0 .498.055.609.166.11.111.166.278.166.5 0 .42-.258.667-.776.741l-1.109.111c-1.799.173-3.154.84-4.066 2-.911 1.16-1.367 2.493-1.367 4v10.11c0 .27-.068.48-.204.629-.135.148-.326.222-.572.222-.247 0-.438-.074-.573-.222-.136-.148-.204-.358-.204-.63V97.267c0-.567.26-.851.777-.851.221 0 .406.074.554.222.148.148.222.358.222.63v2.666c1.06-2.123 2.981-3.284 5.766-3.481l.517-.037h.26zm17.15 14.776c.172 0 .32.068.443.203a.67.67 0 0 1 .185.463c0 .247-.093.488-.277.722-.185.235-.512.5-.98.797-1.774 1.061-3.61 1.592-5.507 1.592-2.686 0-4.8-.827-6.34-2.481s-2.31-3.926-2.31-6.814c0-1.852.346-3.481 1.036-4.888.69-1.408 1.663-2.5 2.92-3.278 1.256-.777 2.698-1.166 4.324-1.166 2.267 0 4.054.74 5.36 2.222 1.306 1.48 1.959 3.505 1.959 6.073 0 .444-.087.765-.26.963-.172.197-.48.296-.923.296h-12.715c.025 2.42.634 4.283 1.83 5.592 1.195 1.308 2.876 1.963 5.045 1.963 1.183 0 2.162-.16 2.938-.482.777-.32 1.534-.74 2.274-1.259.517-.346.85-.518.998-.518zm-6.506-13.406c-1.873 0-3.382.586-4.528 1.759-1.146 1.173-1.817 2.808-2.014 4.907h12.382c-.05-2.148-.579-3.796-1.59-4.944-1.01-1.148-2.426-1.722-4.25-1.722z"/><path id="EatBETTER" fill="#000000" d="M35.577 63.53c0 .173-.043 1.235-.13 3.186-.086 1.95-.13 3.815-.13 5.593v2.146c-4.24-.217-12.635-.325-25.184-.325-1.515 0-3.007.021-4.479.065H2.02c-.822 0-1.233-.196-1.233-.586 0-.26.13-.412.39-.455.13 0 .952-.065 2.466-.195 1.125-.087 1.807-.325 2.045-.715.238-.39.357-1.41.357-3.057V32.64c0-1.257-.184-2.005-.552-2.244-.368-.238-1.547-.357-3.538-.357-.692 0-1.038-.195-1.038-.586 0-.39.476-.585 1.428-.585l11.1.065c.389 0 2.834-.022 7.334-.065h9.087a22.63 22.63 0 0 0 3.57-.26c.087 1.864.282 4.444.585 7.739l.26 2.796c.042.217.064.499.064.846 0 .433-.195.65-.584.65-.476 0-.822-.542-1.039-1.626-.822-3.902-2.163-6.373-4.024-7.414-1.385-.78-5.02-1.17-10.905-1.17H12.47v19.054h1.558c4.846 0 7.8-.368 8.86-1.105 1.06-.737 1.785-2.883 2.174-6.438.087-.91.325-1.366.714-1.366.476 0 .714.39.714 1.17 0 .78-.043 1.93-.13 3.447-.086 1.518-.13 2.667-.13 3.447 0 4.639.087 7.825.26 9.56.043.433.065.802.065 1.105 0 .564-.238.846-.714.846-.303 0-.508-.185-.617-.553-.108-.369-.292-1.572-.551-3.61-.347-2.557-1.407-4.14-3.18-4.747-.78-.26-2.814-.39-6.102-.39H12.47v21.85c9.52 0 15.102-.194 16.746-.584 2.856-.65 4.479-3.425 4.868-8.325.087-1.083.368-1.625.844-1.625.433 0 .65.455.65 1.365zm34.626 10.21c0 .26-.432.39-1.298.39h-.454L64.427 74h-1.818c-.736 0-1.752.021-3.05.065l-1.948.065-1.168.065h-.325c-.779 0-1.168-.174-1.168-.52 0-.348.779-.543 2.337-.586 1.86-.043 2.79-.26 2.79-.65 0-.087-.13-.499-.389-1.236-.086-.347-.584-1.8-1.493-4.357l-.779-2.211h-9.282c-1.774 4.465-2.66 7.045-2.66 7.739 0 .39.259.607.778.65l.844.065h.973l.585.065c.519 0 .779.152.779.455 0 .347-.455.52-1.364.52-.13 0-.897-.032-2.304-.097a81.851 81.851 0 0 0-3.732-.098h-.584l-.584.065-.714.066h-.13c-.693 0-1.039-.13-1.039-.39 0-.304.281-.478.844-.52.779-.044 1.298-.088 1.558-.131.735-.13 1.211-.325 1.428-.585.26-.13 1.32-2.602 3.18-7.414.736-1.95 1.45-3.772 2.142-5.463.26-.607.433-1.062.52-1.365.086-.304.26-.76.519-1.366.736-1.778 1.774-4.466 3.116-8.064l.973-2.731.455-1.171c.26-.65.519-.975.778-.975.13 0 .412.607.844 1.82 1.298 3.165 4.652 11.533 10.061 25.103.52 1.344 1.017 2.06 1.493 2.146.13.043.822.108 2.077.195.822.043 1.233.239 1.233.585zM57.027 63.463l-4.22-11.12c-1.038 2.601-2.466 6.308-4.283 11.12h8.503zm40.922-10.86c0 .607-.26.91-.779.91-.562 0-.865-.412-.909-1.235-.13-1.778-.497-3.23-1.103-4.357-.822-1.561-2.704-2.342-5.647-2.342-.433 0-1.104.022-2.012.065v26.143c0 .824.627 1.258 1.882 1.301 1.255.043 1.882.217 1.882.52 0 .304-.367.456-1.103.456h-.454c-.39 0-.996-.022-1.818-.066h-3.245c-.909.044-2.077.066-3.505.066H79.58c-.866 0-1.298-.152-1.298-.456 0-.303.714-.477 2.142-.52.519 0 .865-.043 1.038-.13.346-.087.541-.314.584-.683.044-.368.065-1.463.065-3.284V45.645c-3.375-.043-5.571.304-6.588 1.04-1.017.738-1.698 2.472-2.045 5.204-.13.997-.41 1.495-.843 1.495-.39 0-.585-.498-.585-1.495 0-1.258.195-3.729.585-7.414l15.123.13c1.342 0 4.068-.043 8.179-.13.346 0 .8-.087 1.363-.26l.065 1.365.195 2.342.194 2.73.13 1.171c.043.39.065.65.065.78zm37.742 9.625c0 4.422-2.012 7.695-6.037 9.82-1.947 1.04-4.738 1.69-8.373 1.95-.995.044-3.938.066-8.828.066h-7.919c-.735 0-1.103-.196-1.103-.586 0-.39.67-.585 2.012-.585 1.558 0 2.478-.163 2.759-.488.281-.325.422-1.311.422-2.959V34.265c0-1.908-.087-3.013-.26-3.317-.303-.52-1.406-.802-3.31-.845-1.169 0-1.753-.217-1.753-.65 0-.39.541-.586 1.623-.586h.779c.476.043.909.065 1.298.065l12.657.13c4.674.044 8.157.824 10.45 2.341 2.684 1.778 4.025 4.357 4.025 7.74 0 2.947-1.103 5.364-3.31 7.25-2.207 1.886-5.301 3.068-9.282 3.545v.39c3.937.26 7.01 1.084 9.217 2.471 3.288 2.081 4.933 5.224 4.933 9.43zm-8.698-22.436c0-4.163-.952-6.937-2.856-8.325-.995-.737-2.878-1.105-5.647-1.105-.736 0-1.882.065-3.44.195v18.86h.584l3.57-.13c2.466-.087 4.381-.965 5.744-2.635 1.363-1.669 2.045-3.956 2.045-6.86zm1.882 21.72c0-5.462-2.207-8.844-6.62-10.145-1.299-.39-3.7-.585-7.205-.585v19.38c0 1.257.13 1.972.39 2.146.432.303 1.644.455 3.634.455 2.986 0 5.366-.954 7.14-2.862 1.774-1.907 2.661-4.704 2.661-8.389zm49.296 2.016c0 .174-.043 1.236-.13 3.187-.087 1.95-.13 3.815-.13 5.593v2.146c-4.24-.217-12.635-.325-25.185-.325-1.514 0-3.007.021-4.478.065h-3.635c-.822 0-1.233-.196-1.233-.586 0-.26.13-.412.389-.455.13 0 .952-.065 2.467-.195 1.125-.087 1.806-.325 2.044-.715.238-.39.357-1.41.357-3.057V32.64c0-1.257-.184-2.005-.552-2.244-.367-.238-1.546-.357-3.537-.357-.692 0-1.039-.195-1.039-.586 0-.39.476-.585 1.428-.585l11.1.065c.39 0 2.834-.022 7.335-.065h9.087a22.63 22.63 0 0 0 3.57-.26c.086 1.864.281 4.444.584 7.739l.26 2.796c.043.217.065.499.065.846 0 .433-.195.65-.585.65-.476 0-.822-.542-1.038-1.626-.822-3.902-2.164-6.373-4.024-7.414-1.385-.78-5.02-1.17-10.905-1.17h-5.323v19.054h1.558c4.847 0 7.8-.368 8.86-1.105 1.06-.737 1.785-2.883 2.175-6.438.086-.91.324-1.366.714-1.366.476 0 .714.39.714 1.17 0 .78-.044 1.93-.13 3.447-.087 1.518-.13 2.667-.13 3.447 0 4.639.087 7.825.26 9.56.043.433.065.802.065 1.105 0 .564-.238.846-.714.846-.303 0-.509-.185-.617-.553-.108-.369-.292-1.572-.552-3.61-.346-2.557-1.406-4.14-3.18-4.747-.78-.26-2.813-.39-6.102-.39h-2.92v21.85c9.52 0 15.101-.194 16.746-.584 2.856-.65 4.478-3.425 4.868-8.325.087-1.083.368-1.625.844-1.625.433 0 .649.455.649 1.365zm41.312-23.086c0 .563-.26.845-.78.845-.519 0-.886-.563-1.103-1.69l-.26-2.342c-.302-1.56-.8-2.883-1.492-3.967-.91-1.43-2.402-2.34-4.48-2.731-1.34-.26-2.422-.369-3.245-.325-2.033.086-3.267.152-3.7.195v39.214c0 1.561.412 2.537 1.234 2.927.433.217 1.644.347 3.635.39.52.043.779.238.779.585 0 .39-.346.586-1.039.586-.346 0-.649-.022-.909-.065-2.596-.087-4.435-.13-5.517-.13-1.428 0-2.77.021-4.024.064-1.255.044-2.856.066-4.803.066-.996 0-1.493-.174-1.493-.52 0-.39.93-.608 2.79-.651 1.342 0 2.208-.282 2.597-.845.216-.347.325-1.236.325-2.667V30.428c-4.284.043-6.946.26-7.984.65-2.726.997-4.327 3.664-4.803 8-.13 1.3-.433 1.95-.91 1.95-.518 0-.778-.455-.778-1.366 0-.476.022-.953.065-1.43l.13-1.496c.13-1.994.324-4.617.584-7.869h2.92l13.242.195c1.558.044 3.981.022 7.27-.065l10.775-.195c.086 2.428.368 6.026.844 10.795 0 .13.021.293.065.488.043.195.065.314.065.358zm40.987 0c0 .563-.26.845-.78.845-.518 0-.886-.563-1.103-1.69l-.26-2.342c-.302-1.56-.8-2.883-1.492-3.967-.909-1.43-2.402-2.34-4.479-2.731-1.341-.26-2.423-.369-3.245-.325-2.034.086-3.267.152-3.7.195v39.214c0 1.561.41 2.537 1.233 2.927.433.217 1.644.347 3.635.39.52.043.779.238.779.585 0 .39-.346.586-1.039.586-.346 0-.649-.022-.908-.065-2.597-.087-4.436-.13-5.518-.13-1.428 0-2.77.021-4.024.064-1.255.044-2.856.066-4.803.066-.996 0-1.493-.174-1.493-.52 0-.39.93-.608 2.79-.651 1.342 0 2.208-.282 2.597-.845.217-.347.325-1.236.325-2.667V30.428c-4.284.043-6.945.26-7.984.65-2.726.997-4.327 3.664-4.803 8-.13 1.3-.433 1.95-.909 1.95-.52 0-.779-.455-.779-1.366 0-.476.022-.953.065-1.43l.13-1.496c.13-1.994.324-4.617.584-7.869h2.92l13.242.195c1.558.044 3.981.022 7.27-.065l10.775-.195c.087 2.428.368 6.026.844 10.795 0 .13.022.293.065.488.043.195.065.314.065.358zm40.403 23.086c0 .174-.044 1.236-.13 3.187-.087 1.95-.13 3.815-.13 5.593v2.146c-4.24-.217-12.636-.325-25.185-.325-1.514 0-3.007.021-4.478.065h-3.635c-.823 0-1.234-.196-1.234-.586 0-.26.13-.412.39-.455.13 0 .952-.065 2.466-.195 1.125-.087 1.807-.325 2.045-.715.238-.39.357-1.41.357-3.057V32.64c0-1.257-.184-2.005-.552-2.244-.368-.238-1.547-.357-3.537-.357-.693 0-1.039-.195-1.039-.586 0-.39.476-.585 1.428-.585l11.1.065c.39 0 2.834-.022 7.334-.065h9.088a22.63 22.63 0 0 0 3.57-.26c.086 1.864.28 4.444.584 7.739l.26 2.796c.043.217.064.499.064.846 0 .433-.194.65-.584.65-.476 0-.822-.542-1.038-1.626-.823-3.902-2.164-6.373-4.025-7.414-1.384-.78-5.02-1.17-10.904-1.17h-5.323v19.054h1.558c4.846 0 7.8-.368 8.86-1.105 1.06-.737 1.785-2.883 2.174-6.438.087-.91.325-1.366.714-1.366.476 0 .714.39.714 1.17 0 .78-.043 1.93-.13 3.447-.086 1.518-.13 2.667-.13 3.447 0 4.639.087 7.825.26 9.56.044.433.065.802.065 1.105 0 .564-.238.846-.714.846-.303 0-.508-.185-.616-.553-.109-.369-.292-1.572-.552-3.61-.346-2.557-1.406-4.14-3.18-4.747-.78-.26-2.813-.39-6.102-.39h-2.921v21.85c9.52 0 15.102-.194 16.747-.584 2.856-.65 4.478-3.425 4.868-8.325.086-1.083.368-1.625.844-1.625.432 0 .649.455.649 1.365zm42.804 8.585c0 1.82-1.514 2.73-4.543 2.73-3.376 0-6.015-1.408-7.92-4.226-.821-1.214-1.352-2.385-1.59-3.512-.238-1.127-.595-3.989-1.07-8.584-.26-2.775-1.147-4.737-2.662-5.886-1.514-1.149-3.98-1.766-7.4-1.853v20.485c0 .867.693 1.41 2.078 1.626.39.043 1.384.087 2.985.13.563 0 .844.173.844.52 0 .39-.368.586-1.103.586h-.78c-.389-.044-2.27-.065-5.646-.065-.65 0-1.753.021-3.31.065h-5.518c-.952 0-1.428-.196-1.428-.586 0-.303.628-.477 1.883-.52 2.033-.043 3.137-.303 3.31-.78.173-.217.26-1.063.26-2.537V33.81c0-1.735-.184-2.775-.552-3.122-.368-.347-1.482-.542-3.343-.585-1.082 0-1.623-.195-1.623-.586 0-.433.346-.65 1.039-.65.13 0 .324.022.584.065l8.633.195c.865 0 2.077-.021 3.635-.065 1.73-.087 2.942-.13 3.635-.13 4.024 0 7.215.9 9.574 2.699 2.358 1.8 3.537 4.238 3.537 7.316 0 3.035-1.211 5.539-3.635 7.511-2.423 1.973-5.712 3.133-9.866 3.48-.39.043-.606.108-.649.195 0 .173.217.26.65.26 4.543.78 7.67 2.373 9.379 4.78 1.709 2.406 2.845 6.752 3.407 13.039.347 3.555 1.558 5.332 3.635 5.332.65 0 .974-.13.974-.39 0-.043-.022-.087-.065-.13-.216-.477-.325-.867-.325-1.17 0-.911.476-1.366 1.428-1.366 1.039 0 1.558.542 1.558 1.626zm-13.436-32.582c0-6.2-2.683-9.3-8.049-9.3-1.428 0-2.401.196-2.92.586-.52.39-.78 1.084-.78 2.081v16.518c4.155.044 7.151-.715 8.99-2.276 1.84-1.56 2.76-4.097 2.76-7.609z"/></g></g></g></g></svg>