<svg xmlns="http://www.w3.org/2000/svg" width="509" height="109"><g fill="none" fill-rule="evenodd"><path fill="#5D8C47" fill-rule="nonzero" d="M406.874 71.592c5.161-3.894 9.504-.853 11.28.327 14.031 9.325 39.376 7.852 56.5-5.07C486.07 58.237 497.31 36.19 508.37.715c-11.395 8.347-22.44 12.078-33.136 11.193-16.043-1.327-28.212-6.7-42.296-.492-18.834 8.302-27.092 23.223-24.775 44.761 8.406-9.246 17.805-15.814 28.197-19.705 9.693-3.63 18.798-3.53 32.015-5.883 8.812-1.568 18.994-7.353 30.547-17.353-8.42 9.608-17.819 16.373-28.197 20.294-15.567 5.883-18.504 2.942-33.19 8.236-14.686 5.294-20.94 10.677-33.484 22.353-8.363 7.783-16.721 19.747-25.074 35.89l10.77 8.447c-.214-7.45 1.327-14.69 4.62-21.717 4.94-10.54 10.133-13.354 12.507-15.146z"/><path fill="#585858" d="M150.983 76.746c.246 0 .451.082.615.246.164.164.246.383.246.656v18.409c0 2.843-.67 4.988-2.009 6.437-1.34 1.449-3.335 2.173-5.986 2.173-1.476 0-2.774-.137-3.895-.41a11.49 11.49 0 0 1-3.239-1.353c-.52-.328-.888-.622-1.107-.881-.219-.26-.328-.527-.328-.8 0-.219.068-.396.205-.533a.721.721 0 0 1 .533-.205c.137 0 .492.164 1.066.492a18.36 18.36 0 0 0 2.952 1.435c1.011.383 2.31.574 3.895.574 2.023 0 3.567-.567 4.633-1.701 1.066-1.135 1.599-2.795 1.599-4.982v-4.305c-.574 1.421-1.47 2.508-2.686 3.26-1.216.751-2.685 1.127-4.407 1.127-1.75 0-3.3-.41-4.653-1.23-1.354-.82-2.406-1.982-3.157-3.485-.752-1.503-1.128-3.225-1.128-5.166 0-1.94.376-3.656 1.127-5.145.752-1.49 1.804-2.645 3.158-3.465 1.353-.82 2.904-1.23 4.653-1.23 1.695 0 3.143.369 4.346 1.107 1.203.738 2.105 1.79 2.706 3.157v-3.239c0-.629.287-.943.861-.943zm-7.913 17.958c2.214 0 3.943-.731 5.186-2.194 1.244-1.462 1.866-3.464 1.866-6.006 0-2.542-.622-4.537-1.866-5.986-1.243-1.449-2.972-2.173-5.186-2.173-2.187 0-3.915.724-5.186 2.173-1.272 1.449-1.907 3.444-1.907 5.986 0 2.57.635 4.578 1.906 6.027 1.272 1.449 3 2.173 5.187 2.173zm24.723-17.958c.328 0 .553.061.677.184.123.124.184.308.184.554 0 .465-.287.738-.861.82l-1.23.123c-1.995.191-3.499.93-4.51 2.214-1.011 1.285-1.517 2.76-1.517 4.428v11.193c0 .3-.075.533-.226.697-.15.164-.362.246-.635.246s-.485-.082-.636-.246c-.15-.164-.225-.396-.225-.697V77.689c0-.629.287-.943.861-.943.246 0 .451.082.615.246.164.164.246.396.246.697v2.952c1.175-2.35 3.307-3.635 6.396-3.854l.574-.041h.287zm11.48 20.541c-1.75 0-3.294-.424-4.633-1.271-1.34-.847-2.378-2.05-3.116-3.608-.738-1.558-1.107-3.376-1.107-5.453 0-2.05.369-3.854 1.107-5.412.738-1.558 1.777-2.76 3.116-3.608 1.34-.847 2.884-1.271 4.633-1.271 1.75 0 3.294.424 4.633 1.271 1.34.847 2.378 2.05 3.116 3.608.738 1.558 1.107 3.362 1.107 5.412 0 2.077-.369 3.895-1.107 5.453-.738 1.558-1.777 2.76-3.116 3.608-1.34.847-2.884 1.271-4.633 1.271zm-.041-1.681c2.269 0 4.011-.745 5.227-2.234 1.217-1.49 1.825-3.629 1.825-6.417 0-2.706-.622-4.817-1.865-6.334-1.244-1.518-2.96-2.276-5.146-2.276-2.187 0-3.902.758-5.145 2.276-1.244 1.517-1.866 3.628-1.866 6.334 0 2.788.608 4.927 1.825 6.416 1.216 1.49 2.931 2.235 5.145 2.235zm22.14 1.681c-1.75 0-3.307-.424-4.674-1.271-1.367-.847-2.426-2.05-3.178-3.608-.751-1.558-1.127-3.348-1.127-5.371 0-2.05.376-3.86 1.127-5.433.752-1.571 1.818-2.787 3.198-3.648 1.38-.862 2.96-1.292 4.736-1.292 1.011 0 1.995.13 2.952.39.957.26 1.804.662 2.542 1.209.52.41.881.745 1.087 1.004.205.26.307.54.307.841a.741.741 0 0 1-.205.513.642.642 0 0 1-.492.225c-.137 0-.3-.061-.492-.184a10.468 10.468 0 0 1-.615-.431 12.02 12.02 0 0 0-2.234-1.394c-.752-.355-1.688-.533-2.809-.533-2.269 0-4.045.779-5.33 2.337-1.285 1.558-1.927 3.704-1.927 6.437 0 2.679.635 4.77 1.906 6.273 1.272 1.503 3.041 2.255 5.31 2.255 1.148 0 2.125-.178 2.931-.533.807-.355 1.579-.82 2.317-1.394.52-.383.875-.574 1.066-.574.191 0 .355.068.492.205.137.137.205.3.205.492 0 .273-.096.52-.287.738-.191.219-.56.547-1.107.984-.71.52-1.585.943-2.624 1.271a10.172 10.172 0 0 1-3.075.492zm26.691-4.182c.191 0 .355.075.492.225.137.15.205.322.205.513 0 .273-.102.54-.308.8-.205.26-.567.553-1.086.881-1.968 1.175-4.004 1.763-6.109 1.763-2.98 0-5.323-.916-7.031-2.747-1.709-1.831-2.563-4.346-2.563-7.544 0-2.05.383-3.854 1.148-5.412.765-1.558 1.845-2.767 3.239-3.629 1.394-.86 2.993-1.291 4.797-1.291 2.515 0 4.496.82 5.945 2.46 1.449 1.64 2.173 3.881 2.173 6.724 0 .492-.096.847-.287 1.066-.191.219-.533.328-1.025.328h-14.104c.027 2.679.704 4.742 2.03 6.191 1.325 1.449 3.19 2.173 5.596 2.173 1.312 0 2.398-.178 3.26-.533.86-.355 1.701-.82 2.521-1.394.574-.383.943-.574 1.107-.574zm-7.216-14.842c-2.077 0-3.751.65-5.023 1.947-1.27 1.299-2.015 3.11-2.234 5.433h13.735c-.055-2.378-.642-4.202-1.763-5.474-1.12-1.27-2.692-1.906-4.715-1.906zm22.632-1.517c.328 0 .553.061.676.184.124.124.185.308.185.554 0 .465-.287.738-.861.82l-1.23.123c-1.995.191-3.499.93-4.51 2.214-1.011 1.285-1.517 2.76-1.517 4.428v11.193c0 .3-.075.533-.226.697-.15.164-.362.246-.635.246s-.485-.082-.635-.246c-.15-.164-.226-.396-.226-.697V77.689c0-.629.287-.943.861-.943.246 0 .451.082.615.246.164.164.246.396.246.697v2.952c1.175-2.35 3.307-3.635 6.396-3.854l.574-.041h.287zm20.377.574c.164-.383.424-.574.779-.574.219 0 .41.075.574.226.164.15.246.348.246.594 0 .082-.027.205-.082.369l-11.767 26.076c-.164.328-.41.492-.738.492a.793.793 0 0 1-.553-.205.687.687 0 0 1-.226-.533l.082-.328 2.952-6.478-8.61-19.024a1.301 1.301 0 0 1-.082-.369c0-.246.096-.451.287-.615a.98.98 0 0 1 .656-.246c.3 0 .533.164.697.492l7.913 17.835.082-.205 7.79-17.507zm22.181 19.967c-1.066 0-2.132-.157-3.198-.472a10.997 10.997 0 0 1-2.87-1.291c-.547-.355-.916-.65-1.107-.882a1.222 1.222 0 0 1-.287-.799c0-.191.068-.362.205-.513.137-.15.3-.225.492-.225.137 0 .321.075.553.225.233.15.39.253.472.308.793.574 1.62 1.045 2.48 1.414.862.37 1.948.554 3.26.554 1.777 0 3.143-.328 4.1-.984.957-.656 1.435-1.585 1.435-2.788 0-.71-.17-1.298-.512-1.763-.342-.465-.902-.868-1.682-1.21-.779-.341-1.892-.676-3.341-1.004-2.405-.547-4.127-1.244-5.166-2.091-1.039-.847-1.558-1.968-1.558-3.362 0-1.695.663-3.075 1.988-4.141 1.326-1.066 3.041-1.599 5.146-1.599 1.011 0 1.982.137 2.911.41.93.273 1.75.656 2.46 1.148.52.383.895.717 1.127 1.005.233.287.349.58.349.881a.741.741 0 0 1-.205.513.642.642 0 0 1-.492.225c-.219 0-.574-.205-1.066-.615a11.462 11.462 0 0 0-2.235-1.353c-.779-.355-1.756-.533-2.931-.533-1.53 0-2.767.362-3.71 1.087-.944.724-1.415 1.674-1.415 2.849 0 .71.15 1.291.451 1.742.3.452.813.841 1.538 1.169.724.328 1.756.642 3.095.943 1.886.465 3.335.936 4.346 1.414 1.011.479 1.729 1.053 2.152 1.722.424.67.636 1.524.636 2.563 0 1.64-.676 2.959-2.03 3.956-1.353.998-3.15 1.497-5.391 1.497zm21.238-1.681c.601.055.902.328.902.82 0 .601-.396.861-1.189.779l-1.066-.082c-2.05-.137-3.553-.758-4.51-1.866-.957-1.107-1.435-2.822-1.435-5.145v-11.48h-3.403a.671.671 0 0 1-.492-.205.671.671 0 0 1-.205-.492c0-.219.068-.403.205-.553.137-.15.3-.226.492-.226h3.403v-5.453c0-.3.082-.533.246-.697a.834.834 0 0 1 .615-.246c.246 0 .451.082.615.246.164.164.246.396.246.697v5.453h5.453c.191 0 .355.075.492.225.137.15.205.335.205.554a.71.71 0 0 1-.185.492c-.123.137-.293.205-.512.205h-5.453v11.521c0 1.859.362 3.184 1.087 3.977.724.793 1.851 1.257 3.382 1.394l1.107.082zm12.259 1.681c-1.75 0-3.294-.424-4.633-1.271-1.34-.847-2.378-2.05-3.116-3.608-.738-1.558-1.107-3.376-1.107-5.453 0-2.05.369-3.854 1.107-5.412.738-1.558 1.777-2.76 3.116-3.608 1.34-.847 2.884-1.271 4.633-1.271 1.75 0 3.294.424 4.633 1.271 1.34.847 2.378 2.05 3.116 3.608.738 1.558 1.107 3.362 1.107 5.412 0 2.077-.369 3.895-1.107 5.453-.738 1.558-1.777 2.76-3.116 3.608-1.34.847-2.884 1.271-4.633 1.271zm-.041-1.681c2.269 0 4.011-.745 5.228-2.234 1.216-1.49 1.824-3.629 1.824-6.417 0-2.706-.622-4.817-1.865-6.334-1.244-1.518-2.96-2.276-5.146-2.276-2.187 0-3.902.758-5.145 2.276-1.244 1.517-1.866 3.628-1.866 6.334 0 2.788.608 4.927 1.825 6.416 1.216 1.49 2.931 2.235 5.145 2.235zm23.493-18.86c.328 0 .553.061.677.184.123.124.184.308.184.554 0 .465-.287.738-.861.82l-1.23.123c-1.995.191-3.499.93-4.51 2.214-1.011 1.285-1.517 2.76-1.517 4.428v11.193c0 .3-.075.533-.226.697-.15.164-.362.246-.635.246s-.485-.082-.635-.246c-.15-.164-.226-.396-.226-.697V77.689c0-.629.287-.943.861-.943.246 0 .451.082.615.246.164.164.246.396.246.697v2.952c1.175-2.35 3.307-3.635 6.396-3.854l.574-.041h.287zm19.024 16.359c.191 0 .355.075.492.225.137.15.205.322.205.513 0 .273-.102.54-.308.8-.205.26-.567.553-1.086.881-1.968 1.175-4.004 1.763-6.109 1.763-2.98 0-5.323-.916-7.031-2.747-1.709-1.831-2.563-4.346-2.563-7.544 0-2.05.383-3.854 1.148-5.412.765-1.558 1.845-2.767 3.239-3.629 1.394-.86 2.993-1.291 4.797-1.291 2.515 0 4.496.82 5.945 2.46 1.449 1.64 2.173 3.881 2.173 6.724 0 .492-.096.847-.287 1.066-.191.219-.533.328-1.025.328h-14.104c.027 2.679.704 4.742 2.03 6.191 1.325 1.449 3.19 2.173 5.596 2.173 1.312 0 2.398-.178 3.26-.533.86-.355 1.701-.82 2.521-1.394.574-.383.943-.574 1.107-.574zm-7.216-14.842c-2.077 0-3.751.65-5.022 1.947-1.272 1.299-2.016 3.11-2.235 5.433h13.735c-.055-2.378-.642-4.202-1.763-5.474-1.12-1.27-2.692-1.906-4.715-1.906z"/><path fill="#000" d="M39.464 40.336c0 .192-.048 1.368-.144 3.528-.096 2.16-.144 4.224-.144 6.192v2.376c-4.704-.24-14.016-.36-27.936-.36a169 169 0 0 0-4.968.072H2.24c-.912 0-1.368-.216-1.368-.648 0-.288.144-.456.432-.504.144 0 1.056-.072 2.736-.216 1.248-.096 2.004-.36 2.268-.792.264-.432.396-1.56.396-3.384V6.136c0-1.392-.204-2.22-.612-2.484-.408-.264-1.716-.396-3.924-.396-.768 0-1.152-.216-1.152-.648 0-.432.528-.648 1.584-.648l12.312.072c.432 0 3.144-.024 8.136-.072h10.08c1.44 0 2.76-.096 3.96-.288.096 2.064.312 4.92.648 8.568l.288 3.096c.048.24.072.552.072.936 0 .48-.216.72-.648.72-.528 0-.912-.6-1.152-1.8-.912-4.32-2.4-7.056-4.464-8.208-1.536-.864-5.568-1.296-12.096-1.296h-5.904v21.096h1.728c5.376 0 8.652-.408 9.828-1.224 1.176-.816 1.98-3.192 2.412-7.128.096-1.008.36-1.512.792-1.512.528 0 .792.432.792 1.296 0 .864-.048 2.136-.144 3.816-.096 1.68-.144 2.952-.144 3.816 0 5.136.096 8.664.288 10.584.048.48.072.888.072 1.224 0 .624-.264.936-.792.936-.336 0-.564-.204-.684-.612-.12-.408-.324-1.74-.612-3.996-.384-2.832-1.56-4.584-3.528-5.256-.864-.288-3.12-.432-6.768-.432h-3.24v24.192c10.56 0 16.752-.216 18.576-.648 3.168-.72 4.968-3.792 5.4-9.216.096-1.2.408-1.8.936-1.8.48 0 .72.504.72 1.512zM77.873 51.64c0 .288-.48.432-1.44.432h-.504l-4.464-.144h-2.016c-.816 0-1.944.024-3.384.072l-2.16.072-1.296.072h-.36c-.864 0-1.296-.192-1.296-.576 0-.384.864-.6 2.592-.648 2.064-.048 3.096-.288 3.096-.72 0-.096-.144-.552-.432-1.368-.096-.384-.648-1.992-1.656-4.824l-.864-2.448H53.393c-1.968 4.944-2.952 7.8-2.952 8.568 0 .432.288.672.864.72l.936.072h1.08l.648.072c.576 0 .864.168.864.504 0 .384-.504.576-1.512.576-.144 0-.996-.036-2.556-.108a90.965 90.965 0 0 0-4.14-.108h-.648l-.648.072-.792.072h-.144c-.768 0-1.152-.144-1.152-.432 0-.336.312-.528.936-.576.864-.048 1.44-.096 1.728-.144.816-.144 1.344-.36 1.584-.648.288-.144 1.464-2.88 3.528-8.208a231.89 231.89 0 0 1 2.376-6.048c.288-.672.48-1.176.576-1.512.096-.336.288-.84.576-1.512.816-1.968 1.968-4.944 3.456-8.928l1.08-3.024.504-1.296c.288-.72.576-1.08.864-1.08.144 0 .456.672.936 2.016 1.44 3.504 5.16 12.768 11.16 27.792.576 1.488 1.128 2.28 1.656 2.376.144.048.912.12 2.304.216.912.048 1.368.264 1.368.648zM63.257 40.264l-4.68-12.312c-1.152 2.88-2.736 6.984-4.752 12.312h9.432zm45.392-12.024c0 .672-.288 1.008-.864 1.008-.624 0-.96-.456-1.008-1.368-.144-1.968-.552-3.576-1.224-4.824-.912-1.728-3-2.592-6.264-2.592-.48 0-1.224.024-2.232.072V49.48c0 .912.696 1.392 2.088 1.44 1.392.048 2.088.24 2.088.576 0 .336-.408.504-1.224.504h-.504c-.432 0-1.104-.024-2.016-.072h-3.6a84.888 84.888 0 0 1-3.888.072h-1.728c-.96 0-1.44-.168-1.44-.504 0-.336.792-.528 2.376-.576.576 0 .96-.048 1.152-.144.384-.096.6-.348.648-.756.048-.408.072-1.62.072-3.636V20.536c-3.744-.048-6.18.336-7.308 1.152-1.128.816-1.884 2.736-2.268 5.76-.144 1.104-.456 1.656-.936 1.656-.432 0-.648-.552-.648-1.656 0-1.392.216-4.128.648-8.208l16.776.144c1.488 0 4.512-.048 9.072-.144.384 0 .888-.096 1.512-.288l.072 1.512.216 2.592.216 3.024.144 1.296c.048.432.072.72.072.864zm41.865 10.656c0 4.896-2.232 8.52-6.696 10.872-2.16 1.152-5.256 1.872-9.288 2.16-1.104.048-4.368.072-9.792.072h-8.784c-.816 0-1.224-.216-1.224-.648 0-.432.744-.648 2.232-.648 1.728 0 2.748-.18 3.06-.54.312-.36.468-1.452.468-3.276V7.936c0-2.112-.096-3.336-.288-3.672-.336-.576-1.56-.888-3.672-.936-1.296 0-1.944-.24-1.944-.72 0-.432.6-.648 1.8-.648h.864c.528.048 1.008.072 1.44.072l14.04.144c5.184.048 9.048.912 11.592 2.592 2.976 1.968 4.464 4.824 4.464 8.568 0 3.264-1.224 5.94-3.672 8.028-2.448 2.088-5.88 3.396-10.296 3.924v.432c4.368.288 7.776 1.2 10.224 2.736 3.648 2.304 5.472 5.784 5.472 10.44zm-9.648-24.84c0-4.608-1.056-7.68-3.168-9.216-1.104-.816-3.192-1.224-6.264-1.224-.816 0-2.088.072-3.816.216v20.88h.648l3.96-.144c2.736-.096 4.86-1.068 6.372-2.916 1.512-1.848 2.268-4.38 2.268-7.596zm2.088 24.048c0-6.048-2.448-9.792-7.344-11.232-1.44-.432-4.104-.648-7.992-.648V47.68c0 1.392.144 2.184.432 2.376.48.336 1.824.504 4.032.504 3.312 0 5.952-1.056 7.92-3.168s2.952-5.208 2.952-9.288zm54.68 2.232c0 .192-.047 1.368-.143 3.528-.096 2.16-.144 4.224-.144 6.192v2.376c-4.704-.24-14.016-.36-27.936-.36a169 169 0 0 0-4.968.072h-4.032c-.912 0-1.368-.216-1.368-.648 0-.288.144-.456.432-.504.144 0 1.056-.072 2.736-.216 1.248-.096 2.004-.36 2.268-.792.264-.432.396-1.56.396-3.384V6.136c0-1.392-.204-2.22-.612-2.484-.408-.264-1.716-.396-3.924-.396-.768 0-1.152-.216-1.152-.648 0-.432.528-.648 1.584-.648l12.312.072c.432 0 3.144-.024 8.136-.072h10.08c1.44 0 2.76-.096 3.96-.288.096 2.064.312 4.92.648 8.568l.288 3.096c.048.24.072.552.072.936 0 .48-.216.72-.648.72-.528 0-.912-.6-1.152-1.8-.912-4.32-2.4-7.056-4.464-8.208-1.536-.864-5.568-1.296-12.096-1.296h-5.904v21.096h1.728c5.376 0 8.652-.408 9.828-1.224 1.176-.816 1.98-3.192 2.412-7.128.096-1.008.36-1.512.792-1.512.528 0 .792.432.792 1.296 0 .864-.048 2.136-.144 3.816-.096 1.68-.144 2.952-.144 3.816 0 5.136.096 8.664.288 10.584.048.48.072.888.072 1.224 0 .624-.264.936-.792.936-.336 0-.564-.204-.684-.612-.12-.408-.324-1.74-.612-3.996-.384-2.832-1.56-4.584-3.528-5.256-.864-.288-3.12-.432-6.768-.432h-3.24v24.192c10.56 0 16.752-.216 18.576-.648 3.168-.72 4.968-3.792 5.4-9.216.096-1.2.408-1.8.936-1.8.48 0 .72.504.72 1.512zm45.826-25.56c0 .624-.288.936-.864.936-.576 0-.984-.624-1.224-1.872l-.288-2.592c-.336-1.728-.888-3.192-1.656-4.392-1.008-1.584-2.664-2.592-4.968-3.024-1.488-.288-2.688-.408-3.6-.36-2.256.096-3.624.168-4.104.216v43.416c0 1.728.456 2.808 1.368 3.24.48.24 1.824.384 4.032.432.576.048.864.264.864.648 0 .432-.384.648-1.152.648-.384 0-.72-.024-1.008-.072-2.88-.096-4.92-.144-6.12-.144-1.584 0-3.072.024-4.464.072-1.392.048-3.168.072-5.328.072-1.104 0-1.656-.192-1.656-.576 0-.432 1.032-.672 3.096-.72 1.488 0 2.448-.312 2.88-.936.24-.384.36-1.368.36-2.952V3.688c-4.752.048-7.704.288-8.856.72-3.024 1.104-4.8 4.056-5.328 8.856-.144 1.44-.48 2.16-1.008 2.16-.576 0-.864-.504-.864-1.512 0-.528.024-1.056.072-1.584l.144-1.656c.144-2.208.36-5.112.648-8.712h3.24l14.688.216c1.728.048 4.416.024 8.064-.072l11.952-.216c.096 2.688.408 6.672.936 11.952 0 .144.024.324.072.54.048.216.072.348.072.396zm45.464 0c0 .624-.288.936-.864.936-.576 0-.984-.624-1.224-1.872l-.288-2.592c-.336-1.728-.888-3.192-1.656-4.392-1.008-1.584-2.664-2.592-4.968-3.024-1.488-.288-2.688-.408-3.6-.36-2.256.096-3.624.168-4.104.216v43.416c0 1.728.456 2.808 1.368 3.24.48.24 1.824.384 4.032.432.576.048.864.264.864.648 0 .432-.384.648-1.152.648-.384 0-.72-.024-1.008-.072-2.88-.096-4.92-.144-6.12-.144-1.584 0-3.072.024-4.464.072-1.392.048-3.168.072-5.328.072-1.104 0-1.656-.192-1.656-.576 0-.432 1.032-.672 3.096-.72 1.488 0 2.448-.312 2.88-.936.24-.384.36-1.368.36-2.952V3.688c-4.752.048-7.704.288-8.856.72-3.024 1.104-4.8 4.056-5.328 8.856-.144 1.44-.48 2.16-1.008 2.16-.576 0-.864-.504-.864-1.512 0-.528.024-1.056.072-1.584l.144-1.656c.144-2.208.36-5.112.648-8.712h3.24l14.688.216c1.728.048 4.416.024 8.064-.072l11.952-.216c.096 2.688.408 6.672.936 11.952 0 .144.024.324.072.54.048.216.072.348.072.396zm44.817 25.56c0 .192-.048 1.368-.144 3.528-.096 2.16-.144 4.224-.144 6.192v2.376c-4.704-.24-14.016-.36-27.936-.36a169 169 0 0 0-4.968.072h-4.032c-.912 0-1.368-.216-1.368-.648 0-.288.144-.456.432-.504.144 0 1.056-.072 2.736-.216 1.248-.096 2.004-.36 2.268-.792.264-.432.396-1.56.396-3.384V6.136c0-1.392-.204-2.22-.612-2.484-.408-.264-1.716-.396-3.924-.396-.768 0-1.152-.216-1.152-.648 0-.432.528-.648 1.584-.648l12.312.072c.432 0 3.144-.024 8.136-.072h10.08c1.44 0 2.76-.096 3.96-.288.096 2.064.312 4.92.648 8.568l.288 3.096c.048.24.072.552.072.936 0 .48-.216.72-.648.72-.528 0-.912-.6-1.152-1.8-.912-4.32-2.4-7.056-4.464-8.208-1.536-.864-5.568-1.296-12.096-1.296h-5.904v21.096h1.728c5.376 0 8.652-.408 9.828-1.224 1.176-.816 1.98-3.192 2.412-7.128.096-1.008.36-1.512.792-1.512.528 0 .792.432.792 1.296 0 .864-.048 2.136-.144 3.816-.096 1.68-.144 2.952-.144 3.816 0 5.136.096 8.664.288 10.584.048.48.072.888.072 1.224 0 .624-.264.936-.792.936-.336 0-.564-.204-.684-.612-.12-.408-.324-1.74-.612-3.996-.384-2.832-1.56-4.584-3.528-5.256-.864-.288-3.12-.432-6.768-.432h-3.24v24.192c10.56 0 16.752-.216 18.576-.648 3.168-.72 4.968-3.792 5.4-9.216.096-1.2.408-1.8.936-1.8.48 0 .72.504.72 1.512zm47.48 9.504c0 2.016-1.68 3.024-5.04 3.024-3.743 0-6.671-1.56-8.783-4.68-.912-1.344-1.5-2.64-1.764-3.888-.264-1.248-.66-4.416-1.188-9.504-.288-3.072-1.272-5.244-2.952-6.516-1.68-1.272-4.416-1.956-8.208-2.052v22.68c0 .96.768 1.56 2.304 1.8.432.048 1.536.096 3.312.144.624 0 .936.192.936.576 0 .432-.408.648-1.224.648h-.864c-.432-.048-2.52-.072-6.264-.072-.72 0-1.944.024-3.672.072h-6.12c-1.056 0-1.584-.216-1.584-.648 0-.336.696-.528 2.088-.576 2.256-.048 3.48-.336 3.672-.864.192-.24.288-1.176.288-2.808V7.432c0-1.92-.204-3.072-.612-3.456-.408-.384-1.644-.6-3.708-.648-1.2 0-1.8-.216-1.8-.648 0-.48.384-.72 1.152-.72.144 0 .36.024.648.072l9.576.216c.96 0 2.304-.024 4.032-.072 1.92-.096 3.264-.144 4.032-.144 4.464 0 8.004.996 10.62 2.988 2.616 1.992 3.924 4.692 3.924 8.1 0 3.36-1.344 6.132-4.032 8.316-2.688 2.184-6.336 3.468-10.944 3.852-.432.048-.672.12-.72.216 0 .192.24.288.72.288 5.04.864 8.508 2.628 10.404 5.292 1.896 2.664 3.156 7.476 3.78 14.436.384 3.936 1.728 5.904 4.032 5.904.72 0 1.08-.144 1.08-.432 0-.048-.024-.096-.072-.144-.24-.528-.36-.96-.36-1.296 0-1.008.528-1.512 1.584-1.512 1.152 0 1.728.6 1.728 1.8zm-14.903-36.072c0-6.864-2.976-10.296-8.928-10.296-1.584 0-2.664.216-3.24.648-.576.432-.864 1.2-.864 2.304v18.288c4.608.048 7.932-.792 9.972-2.52 2.04-1.728 3.06-4.536 3.06-8.424z"/></g></svg>