<svg xmlns="http://www.w3.org/2000/svg" width="20" height="21"><path fill="#979797" fill-rule="evenodd" d="M19.727 17.805a.904.904 0 0 1 .273.664c0 .26-.091.482-.273.664l-1.094 1.094a.904.904 0 0 1-.664.273.904.904 0 0 1-.664-.273l-3.907-3.907a.904.904 0 0 1-.273-.664v-.625c-1.458 1.146-3.125 1.72-5 1.72-1.484 0-2.845-.366-4.082-1.095a8.209 8.209 0 0 1-2.95-2.949C.366 11.47 0 10.11 0 8.625S.365 5.78 1.094 4.543a8.209 8.209 0 0 1 2.949-2.95C5.28.866 6.641.5 8.125.5s2.845.365 4.082 1.094a8.209 8.209 0 0 1 2.95 2.949c.728 1.237 1.093 2.598 1.093 4.082 0 1.875-.573 3.542-1.719 5h.625c.26 0 .482.091.664.273l3.907 3.907zm-11.602-4.18a4.96 4.96 0 0 0 2.52-.664 4.864 4.864 0 0 0 1.816-1.816 4.958 4.958 0 0 0 .664-2.52 4.96 4.96 0 0 0-.664-2.52 4.864 4.864 0 0 0-1.816-1.816 4.958 4.958 0 0 0-2.52-.664 4.96 4.96 0 0 0-2.52.664A4.864 4.864 0 0 0 3.79 6.106a4.958 4.958 0 0 0-.664 2.52c0 .91.221 1.75.664 2.519a4.864 4.864 0 0 0 1.816 1.816 4.958 4.958 0 0 0 2.52.664z"/></svg>