
<svg xmlns="http://www.w3.org/2000/svg" width="98px" height="69px" version="1.1" viewBox="0 0 98 69"><g id="page1" fill="none" fill-rule="evenodd" stroke="none" stroke-width="1"><g id="index" fill="#000000" fill-rule="nonzero" transform="translate(-916 -223)"><g id="menu" transform="translate(187 196)"><g id="Group-6" transform="translate(728 27)"><g id="vegan"><g id="Group" transform="translate(.52)"><path id="Shape" d="M47.827 68.533C40.377 19.734 3.789 1.93 3.417 1.756L.69.468h3.019c11.61 0 21.247 3.92 28.64 11.656 18.35 19.193 16.844 55.97 16.825 56.339l-1.347.07zM6.487 1.9C14.464 6.61 39.33 23.934 47.71 60.656c-.598-11.757-3.486-34.155-16.344-47.601C24.834 6.224 16.476 2.48 6.486 1.9z"/><path id="Shape" d="M50.067 57.647l-.105-4.295c-.006-.25-.437-25.08 14.665-40.526C72.647 4.624 83.563.466 97.077.466h1.191L97.66 1.49c-.21.347-20.97 34.945-41.285 48.147l-1.572 1.023.555-1.79c.048-.152 4.306-13.496 17.345-28.767-6.744 6.143-16.648 17.359-21.411 33.423l-1.225 4.121zM95.861 1.832C83.288 2.074 73.11 6.087 65.599 13.77 54.84 24.774 52.179 40.71 51.523 48.57c8.645-23.05 27.187-35.012 27.385-35.138l5.184-3.286-4.342 4.335C65.63 28.574 59.326 42.357 57.363 47.329 74.88 34.922 92.358 7.498 95.861 1.832z"/></g></g></g></g></g></g></svg>