<svg xmlns="http://www.w3.org/2000/svg" width="127px" height="88px" version="1.1" viewBox="0 0 127 88"><g id="page1" fill="none" fill-rule="evenodd" stroke="none" stroke-width="1"><g id="index" fill="#000000" transform="translate(-549 -198)"><g id="menu" transform="translate(187 196)"><g id="Group-4" transform="translate(356)"><g id="Group-2"><g id="noun_Carrot_2151359" transform="rotate(23 -13.978 146.27)"><path id="Shape" fill-rule="nonzero" d="M4.2 76.1h-.1c-1.4 0-2.3-.4-2.8-1.2-.3-.5-.4-1-.4-1.5s0-1.1.3-1.6c.2-.4.5-.7.8-.9l.2-.2c.8-.8 1.5-1.9 2.2-3 .3-.6.7-1.2 1.1-1.7 1.3-1.8 2.5-3.5 3.8-5.3 2.5-3.5 5.2-6.9 7.8-10.4C25 40 33.5 29.9 42.3 20.2c2.2-2.5 4.5-4.7 7.5-5.5 3-.8 6.6.1 9.6 2.5C65 21.5 71.6 30.6 67.3 38c-2.4 4-6.7 6.6-10.2 8.7L11.4 73.6c-1.2.7-2.5 1.5-3.9 1.9-.2.1-.4.1-.6.2-.9.1-1.8.4-2.7.4zm47.7-60.7c-.7 0-1.3.1-1.9.2-2.7.7-4.9 2.9-7 5.2-8.7 9.7-17.2 19.8-25.1 30.2-2.6 3.4-5.3 6.9-7.8 10.3-1.3 1.7-2.5 3.5-3.8 5.2-.4.5-.7 1-1 1.6-.7 1.1-1.4 2.3-2.4 3.2l-.2.2c-.2.2-.5.4-.6.7-.2.3-.2.8-.2 1.1 0 .3.1.7.2 1 .3.5 1 .7 2 .7.8 0 1.7-.2 2.5-.5.2-.1.4-.1.6-.2 1.3-.4 2.5-1.1 3.6-1.7l45.6-26.9c3.6-2.1 7.6-4.5 9.9-8.3 4-6.8-2.4-15.4-7.7-19.5-2-1.6-4.4-2.5-6.7-2.5z"/><path id="Path" d="M62.4 20.4c-.2 0-.4-.1-.5-.3-.1-.3 0-.5.3-.6 7.7-2.7 11.4-7.7 14.7-14.4.4-.7 1.1-2.6.1-3.4-1.1-.9-2.9.4-3.8 1.3-4.7 4.7-8.6 10-11.7 15.8-.1.2-.4.3-.7.2-.2-.1-.3-.4-.2-.7C63.7 12.4 67.7 7 72.5 2.2 73.9.8 76.1-.4 77.7.9c1.1.9 1.1 2.6.1 4.6-3.4 6.9-7.2 12-15.3 14.9h-.1z"/><path id="Shape" fill-rule="nonzero" d="M69.8 20c-2.7 0-5.3-.2-7.6-.3h-.6c-.2 0-.4-.2-.4-.4s0-.4.2-.5c6.3-4.5 16.9-9.2 24.6-11 .2-.1.5.1.6.3 1.6 4.1-1.6 8.5-5.4 10.2-3.3 1.3-7.4 1.7-11.4 1.7zm-6.6-1.3c5.5.3 12.7.7 17.5-1.4 3.3-1.4 6.1-5 5-8.5-7 1.7-16.4 5.8-22.5 9.9z"/><path id="Path" d="M76.2 27.6c-3.9 0-7.7-1.5-11.1-2.9-.3-.1-.4-.4-.3-.7.1-.3.4-.4.7-.3 3.7 1.5 7.9 3.2 12.1 2.8 3.7-.4 7.7-3.1 8.1-7h-2.4c-6.8 0-13.9 0-19.7 2.7-.2.1-.5 0-.7-.2-.2-.2 0-.5.2-.7 6-2.9 13.1-2.8 20.1-2.8h2.9c.1 0 .3.1.4.1.1 0 .1.2.1.4 0 4.7-4.7 8-9 8.5-.4.1-.9.1-1.4.1zM50.8 25.1c-.1 0-.2 0-.3-.1l-6.3-6c-.2-.2-.2-.5 0-.7.2-.2.5-.2.7 0l6.3 5.9c.2.2.2.5 0 .7-.2.1-.3.2-.4.2zM57.8 42.5c-.1 0-.3-.1-.4-.2-1.9-2.2-3.1-5.1-3.2-8 0-.3.2-.5.5-.5s.5.2.5.5c.1 2.7 1.2 5.4 3 7.4.2.2.2.5 0 .7-.2.1-.3.1-.4.1zM39.1 33.4c-.1 0-.3-.1-.4-.2L35 29.1c-.2-.2-.2-.5 0-.7.2-.2.5-.2.7 0l3.7 4.1c.2.2.2.5 0 .7-.1.1-.2.2-.3.2zM45.3 53.5c-.2 0-.3-.1-.4-.2-.9-1.5-2-3-3-4.4-1-1.4-2.1-2.9-3-4.5-.1-.2-.1-.5.2-.7.2-.1.5-.1.7.2.9 1.5 2 3 3 4.4 1 1.4 2.1 2.9 3 4.5.1.2.1.5-.2.7h-.3zM30.3 45.9c-.2 0-.3-.1-.4-.2l-3.7-6.2c-.1-.2-.1-.5.2-.7.2-.1.5-.1.7.2l3.7 6.2c.1.2.1.5-.2.7h-.3zM22.2 64.6c-.1 0-.2 0-.3-.1-2.1-2-3.2-4.9-3.1-7.7 0-.3.2-.5.5-.5s.5.2.5.5c-.1 2.6.9 5.2 2.8 6.9.2.2.2.5 0 .7-.1.2-.2.2-.4.2zM11.9 66.8c-.1 0-.3-.1-.4-.2l-3.3-3.9c-.2-.2-.2-.5.1-.7.2-.2.5-.2.7.1l3.3 3.9c.2.2.2.5-.1.7-.1.1-.2.1-.3.1z"/></g><g id="noun_Radish_849985" fill-rule="nonzero" transform="rotate(-81 43.318 36.03)"><path id="Shape" d="M67.2 7.5c-1.4-.1-2.8.2-4 .9-1.2-1.3-2.8-2.1-4.5-2.3-1.9-.2-3.7.4-5.1 1.5-1 .8-1.7 1.8-2.1 2.9-1.7-.4-3.5-.2-5.1.5 0-1.2-.3-2.4-1-3.4-.8-1.1-2-1.9-3.3-2.2 0-2.5-1.8-4.8-4.4-5.2-2.9-.5-5.6 1.5-6.1 4.3-.1.3-.1.7-.1 1-2 .6-3.6 2.4-4 4.5-.2 1.4.1 2.9.9 4.1-.8.9-1.4 2-1.6 3.3-.3 1.9.2 3.8 1.4 5.2-.1.2-.2.5-.2.7-.3 1.4-.1 2.8.6 3.9.7 1.2 1.9 2 3.2 2.4 1.1.3 2.1.2 3.1-.2-.8 3.1-1.7 5.4-2.2 6.5-9.2-6.2-21-5.7-27.7 1.3-6.2 6.4-6.6 16.4-1.2 24.8 1.9 3 2.3 6.4 1.1 9l-.4.9c-.3.7-.1 1.5.5 2 .3.3.7.4 1.1.4.3 0 .7-.1.9-.3l1-.7c2.3-1.7 5.6-2 8.9-.8 8.8 3.2 18.2 1 23.3-5.5 3.1-3.9 4.3-9 3.6-14.3-.8-5.6-3.9-11-8.5-14.9.9-1.3 3.1-4 6.4-7.2.1 1.5.7 2.9 1.7 4 1.3 1.3 2.9 2 4.6 2 1.6 0 3.2-.6 4.4-1.8.3-.3.5-.5.7-.8 2.3.5 4.8-.1 6.6-1.6 1.2-1 2.1-2.4 2.6-3.9 1.8.2 3.6-.4 5.1-1.5 2.1-1.7 3-4.6 2.4-7.2.4-.2.8-.5 1.2-.8 1.3-1.1 2.2-2.7 2.4-4.4.2-1.7-.3-3.4-1.4-4.8-1.6-1.3-3.1-2.1-4.8-2.3zm-32 19.2c-.8.9-2 1.3-3.2 1-1.7-.4-2.8-2.2-2.3-3.9.1-.3.2-.6.4-.9.2-.4.2-.9-.2-1.2-1.1-1-1.6-2.5-1.4-4 .2-1.1.8-2 1.6-2.7.2-.2.4-.4.4-.7 0-.3-.1-.6-.3-.8-.8-.9-1.2-2-1-3.2.3-1.6 1.6-2.9 3.2-3.1.3 0 .5-.2.7-.4.2-.2.2-.5.2-.8-.1-.4-.1-.8 0-1.2.3-1.8 2-3 3.8-2.7 1.8.3 3 2 2.7 3.9-.1.3 0 .6.2.8.2.2.4.4.7.4h.4c1 .2 1.8.7 2.4 1.5.6.8.8 1.8.6 2.8-.1.8-.6 1.6-1.2 2.2-.2.2-.3.5-.3.8 0 .3.1.6.4.8 1.2 1 1.9 2.6 1.6 4.2-.2 1.2-.9 2.2-1.8 2.9-.4.3-.5.8-.3 1.3.3.7.4 1.5.3 2.2-.1.6-.4 1.1-.9 1.5l-.2.2c-.1.1-.2.2-.4.3-.7.4-1.6.6-2.4.4-.6-.1-1.1-.5-1.5-.9 1.1-5.1 1.7-11.7.6-19.2-.1-.5-.6-.9-1.1-.8-.5.1-.9.6-.8 1.1.8 7 .2 13.3-.9 18.2.1 0 0 0 0 0zM41.4 53c.7 4.7-.4 9.3-3.2 12.8-4.6 5.8-13 7.8-21 4.8-1.5-.6-3.1-.8-4.6-.8-2.3 0-4.4.6-6.2 1.9 1.4-3.2.9-7.2-1.3-10.7-4.9-7.7-4.5-16.6 1-22.4 6.1-6.4 17.1-6.7 25.5-.8.4.3.7.5 1 .8.1.1.1.2.2.2h.1c4.7 3.8 7.7 8.9 8.5 14.2zm-6-19.1c.4-1.2.9-2.7 1.3-4.4.5.3 1 .5 1.6.7.2 0 .3.1.5.1-1.4 1.3-2.5 2.5-3.4 3.6zM71 14.4c-.1 1.2-.7 2.3-1.6 3-.4.4-.9.6-1.5.8-.3.1-.5.3-.6.5-.1.3-.1.5 0 .8.9 2 .3 4.4-1.5 5.8-1.2 1-2.8 1.4-4.4 1-.3-.1-.6 0-.8.1-.2.2-.4.4-.4.7-.2 1.4-1 2.8-2.1 3.7-1.5 1.3-3.6 1.7-5.5 1.1-.4-.1-.9 0-1.2.5-.2.4-.5.7-.8 1-1.8 1.7-4.5 1.6-6.2-.2-1.1-1.2-1.5-2.9-.9-4.5v-.2c4.8-4.2 11.5-8.9 20-12.1.5-.2.8-.8.6-1.3-.2-.5-.8-.8-1.3-.6-7.4 2.8-13.4 6.6-18.1 10.3 0-.5-.1-.9-.2-1.4 1.1-1 1.8-2.2 2-3.7.3-1.9-.3-3.9-1.5-5.3.2-.2.3-.4.4-.6.1 0 .2-.1.3-.1 1.7-1.4 3.9-1.7 5.9-.9.3.1.6.1.8 0 .3-.1.4-.4.5-.7.2-1.1.8-2.1 1.7-2.9 2.1-1.7 5.3-1.4 7.1.7.1.1.2.3.3.4.2.2.4.4.7.4.3 0 .6 0 .8-.2l.1-.1c.9-.8 2.1-1.1 3.3-1 1.2.1 2.3.7 3 1.6.7.9 1.2 2.2 1.1 3.4z"/></g></g></g></g></g></g></svg>