<svg xmlns="http://www.w3.org/2000/svg" width="80" height="80"><g fill="#000" fill-rule="nonzero"><path d="M68.75 0h-57.5C5.037 0 0 5.037 0 11.25v57.5C0 74.963 5.037 80 11.25 80h57.5C74.963 80 80 74.963 80 68.75v-57.5C80 5.037 74.963 0 68.75 0zm8.75 68.75a8.75 8.75 0 0 1-8.75 8.75h-57.5a8.75 8.75 0 0 1-8.75-8.75v-57.5a8.75 8.75 0 0 1 8.75-8.75h57.5a8.75 8.75 0 0 1 8.75 8.75v57.5z"/><path d="M40.645 6.452c-9.436.012-18.439 4.08-24.835 11.225a1.3 1.3 0 0 0-.043 1.671l13.087 16.316c.226.283.559.452.914.464.354.012.696-.134.938-.4 2.577-2.827 6.174-4.43 9.94-4.43 3.764 0 7.361 1.603 9.938 4.43.234.256.56.4.901.4h.037c.356-.012.688-.18.914-.464l13.087-16.316a1.3 1.3 0 0 0-.043-1.671C59.084 10.533 50.08 6.464 40.645 6.452zm-.833 22.341l.833-5.383.834 5.383c-.278 0-.556-.038-.834-.038-.278 0-.555.026-.833.038zm11.574 4.19a15.723 15.723 0 0 0-7.352-3.853L41.88 15.16a1.246 1.246 0 0 0-1.22-1.071c-.606 0-1.123.454-1.219 1.07l-2.166 13.984a15.72 15.72 0 0 0-7.371 3.84L18.372 18.597c5.875-6.144 13.899-9.604 22.273-9.604s16.398 3.46 22.273 9.604L51.386 32.982z"/></g></svg>