<svg xmlns="http://www.w3.org/2000/svg" width="53" height="50"><path fill="#000" fill-rule="nonzero" d="M51.938.875a.972.972 0 0 0-1-.25c-16.876 4-33.5 8.813-49.876 14.375-.562.188-.75.625-.687 1.063-.188.375-.188.812.125 1.187 3 3.563 6 7.125 8.938 10.688l.187.187c.25 5.125.5 10.188.75 15.313 0 .187.063.312.125.437.063.688.75 1.375 1.563.938 3.374-1.563 6.812-3.188 10.187-4.75 3 2.937 6.063 5.812 9 8.874.25.25.5.313.813.313.437.25 1 .188 1.312-.375a325.057 325.057 0 0 0 18.875-47c.125-.375-.063-.75-.313-1zm-34 34.938c.875.937 1.812 1.812 2.75 2.75A380.002 380.002 0 0 0 13.438 42c1.312-2.188 3-4.125 4.5-6.188zm-1.188-1.876c-1.438 2-3.063 3.876-4.5 5.938-.188-3.875-.375-7.813-.563-11.75C23.126 21.312 34.064 13.562 45.313 6.5c-3.876 3.75-8.063 7.25-12.063 10.875-5.75 5.125-12 10.25-16.5 16.563zM2.625 16.688C16.563 12 30.688 7.813 44.938 4.25c-11.5 7.188-22.563 15.063-34.25 22.063C8 23.125 5.311 19.875 2.624 16.688zm29.438 30.125c-4.188-4.312-8.688-8.374-12.876-12.687 4.438-5.938 10.5-10.813 16-15.688 4.5-4.062 9.313-8 13.563-12.437a317.58 317.58 0 0 1-16.688 40.813z" opacity=".75"/></svg>