<svg xmlns="http://www.w3.org/2000/svg" width="52" height="50"><path fill="#000" fill-rule="nonzero" d="M51.47 3.617C50.146.63 46.666-.716 43.695.614s-4.308 4.83-2.986 7.818c.13.292.285.565.453.824l-15.74 14.006a6.515 6.515 0 0 0-2.298-1.305l.64-3.63a3.68 3.68 0 0 0 1.972-.706 3.75 3.75 0 0 0 .817-5.219 3.7 3.7 0 0 0-5.189-.822 3.75 3.75 0 0 0-.817 5.219c.406.56.938.97 1.529 1.226l-.642 3.639c-.095-.004-.189-.015-.285-.015-1.295 0-2.5.386-3.515 1.042L7.475 10.587a3.942 3.942 0 0 0 .864-2.107c.214-2.17-1.364-4.104-3.522-4.318C2.66 3.948.737 5.534.523 7.705c-.213 2.17 1.364 4.104 3.523 4.318a3.882 3.882 0 0 0 2.08-.372l10.201 12.154a6.554 6.554 0 0 0-1.705 4.41c0 .182.013.36.027.538l-6.686 1.462a3.208 3.208 0 0 0-1.928-1.595 3.21 3.21 0 0 0-3.995 2.178 3.235 3.235 0 0 0 2.166 4.018 3.21 3.21 0 0 0 4.12-2.917l6.69-1.462a6.584 6.584 0 0 0 2.91 3.479l-2.73 6.774a4.39 4.39 0 0 0-3.22.613 4.471 4.471 0 0 0-1.355 6.153 4.416 4.416 0 0 0 6.118 1.363 4.471 4.471 0 0 0 1.355-6.153c-.349-.55-.8-.994-1.31-1.33l2.731-6.772c.524.137 1.07.216 1.636.216a6.502 6.502 0 0 0 5.021-2.375l6.586 4.16a6.02 6.02 0 0 0-.125 4.564c1.17 3.103 4.62 4.664 7.705 3.487 3.085-1.177 4.638-4.646 3.468-7.75-1.17-3.102-4.62-4.664-7.705-3.487-.978.373-1.8.977-2.432 1.726l-6.587-4.162a6.556 6.556 0 0 0-.517-6.395l15.734-14a5.856 5.856 0 0 0 6.184.887c2.971-1.33 4.308-4.83 2.986-7.818zm-30.32 29.44c-2.654 0-4.813-2.172-4.813-4.842 0-2.67 2.159-4.841 4.814-4.841 2.655 0 4.814 2.171 4.814 4.84 0 2.67-2.16 4.843-4.814 4.843z" opacity=".75"/></svg>