<svg xmlns="http://www.w3.org/2000/svg" width="1200" height="271" fill="none"><path fill="url(#paint0_radial)" fill-opacity=".2" d="M1132.5 8.1c39-20 56.8 2.7 67 8v255l-1036-1.1S268 267 332 252.1c64-14.9 89-108 219-82.5s139.5-40 228.5-40c45 0 125 70 202.5 40s89.5-130.2 150.5-161.5z"/><path fill="url(#paint1_radial)" fill-opacity=".2" d="M1004.5 8.1c65.5-7.7 119 8.4 155.5 65.9 36.5 57.5 40 197.1 40 197.1H.5h2.8c19.6 0 135-1.1 200.7-19 72-19.6 89-108 219-82.5s139.5-40 228.5-40c45 0 125 70 202.5 40S918.9 18.2 1004.5 8.1z"/><defs><radialGradient id="paint0_radial" cx="0" cy="0" r="1" gradientTransform="rotate(-98.5 517.8 -311.7) scale(195.167 807.371)" gradientUnits="userSpaceOnUse"><stop stop-color="#7AC192"/><stop offset="1" stop-color="#F1FBDA" stop-opacity="0"/></radialGradient><radialGradient id="paint1_radial" cx="0" cy="0" r="1" gradientTransform="rotate(-98.5 453.8 -256.6) scale(195.167 807.371)" gradientUnits="userSpaceOnUse"><stop stop-color="#7AC192"/><stop offset="1" stop-color="#F1FBDA" stop-opacity="0"/></radialGradient></defs></svg>