<svg xmlns="http://www.w3.org/2000/svg" width="1200" height="725" fill="none"><path stroke="url(#paint0_linear)" stroke-linecap="round" d="M-1 440.5c41.3-60.5 89-188.1 221-223 96.5-25.5 205 14 258 45.5 100.5 59.7 260 65 382-57 97.6-97.6 267.7-144.3 340.5-155.5"/><path stroke="url(#paint1_linear)" stroke-linecap="round" stroke-width="2" d="M-.5 313.5c51.8-51.9 115-170.5 305-193 99.1-11.7 208 39.5 263 72C668.2 252 764.6 303.5 907 206c113.9-78 219.9-16 293.5-13.5"/><path stroke="url(#paint2_linear)" stroke-linecap="round" stroke-width="4" d="M0 443.5c55.2-48.2 235-267 426-276.5 99.7-5 189.5 21.5 262 80 90.8 73.6 189 124.2 337.7 36.7 119-70 99.5-7.5 172.8 0"/><defs><linearGradient id="paint0_linear" x1="216" x2="934.5" y1="208" y2="361.5" gradientUnits="userSpaceOnUse"><stop stop-color="#63CF9B"/><stop offset="1" stop-color="#63CF9B" stop-opacity="0"/></linearGradient><linearGradient id="paint1_linear" x1="272.6" x2="950.6" y1="63.7" y2="346.8" gradientUnits="userSpaceOnUse"><stop stop-color="#63CF9B"/><stop offset="1" stop-color="#63CF9B" stop-opacity="0"/></linearGradient><linearGradient id="paint2_linear" x1="558" x2="1338.5" y1="194" y2="403" gradientUnits="userSpaceOnUse"><stop stop-color="#63CF9B" stop-opacity=".5"/><stop offset="1" stop-color="#63CF9B" stop-opacity="0"/></linearGradient></defs></svg>