<svg xmlns="http://www.w3.org/2000/svg" width="32" height="50"><path fill="#000" fill-rule="nonzero" d="M31.304 23.571c-.252-.778-.97-1.564-2.253-1.825.037-.103.07-.203.103-.298.04-.12.08-.238.12-.345.459-1.21.799-2.545 1.01-3.97.208-1.397.067-2.737-.097-3.99a12.454 12.454 0 0 0-.336-1.715.64.64 0 0 0 .428-.645c-.105-1.68-1.763-3.814-2.92-4.707-1.076-.83-2.249-1.278-3.255-1.607a8.035 8.035 0 0 0-.457-.13c-.183-.048-.459-.121-.496-.127 0 0-.01-.065.044-.233.09-.28.246-.555.413-.845.304-.531.65-1.133.65-1.92a.641.641 0 0 0-.767-.628c-.975.197-1.789.97-2.366 1.815-.104-.482-.174-.945-.138-1.392a.641.641 0 0 0-1.126-.466c-.564.666-.694 1.376-.713 2.052C14.957.514 7.843 3.406 4.641 5.66 2.491 7.175.335 10.466.601 13.143a.641.641 0 0 0 .34.505c-.012.2-.014.398-.016.588l-.004.25a.642.642 0 0 0 .574.65c.008.372.032.815.072 1.346.137 1.837.802 3.613 1.546 5.26C1.816 22 1.093 22.788.84 23.571c-.333 1.03-.026 2.55 1.835 3.724.877.559 1.781.456 2.32.394.063-.007.138-.016.203-.022 1.48 2.082 2.68 2.877 3.878 3.569 1.343.774 2.78 1.16 3.836 1.353H9.92c-.654 0-1.27.255-1.738.724a2.475 2.475 0 0 0-.713 1.737c0 .355.085.698.23 1.013-.98.787-1.665 1.695-2.435 2.775-.97 1.406-1.295 3.874-1.395 5.696-.087 1.59.013 3.411.142 4.433.078.586.515.716 1.665.716.37 0 .814-.014 1.344-.03.697-.021 1.51-.034 2.349-.044l1.536.004c1.706.005 3.996.012 5.09-.002h.011l.16-.002 2.071.011 1.422-.004c.632-.002 1.44-.005 2.924-.007.572 0 1.136.004 1.663.01 3.02.03 3.732.034 3.833-.766.111-.885.113-2.339.003-4.319-.099-1.82-.422-4.286-1.4-5.704-.758-1.064-1.432-1.955-2.396-2.738.154-.324.245-.677.245-1.042 0-.65-.254-1.266-.719-1.742a2.432 2.432 0 0 0-1.732-.719h-2.716c1.15-.194 2.693-.582 4.046-1.362 1.123-.648 2.03-1.416 3.538-3.56l.202.022c.54.062 1.443.164 2.317-.392 1.862-1.175 2.17-2.695 1.837-3.726zM15.36 48.335a560.7 560.7 0 0 1-4.45-.004l-.67-.002v-3.768a.64.64 0 1 0-1.28 0v3.77c-.713.008-1.385.023-1.979.04-.64.02-1.347.04-1.745.025a27.471 27.471 0 0 1-.09-3.792c.13-2.342.546-4.131 1.165-5.029.732-1.026 1.34-1.835 2.202-2.524.407.29.896.455 1.407.455h2.293a.64.64 0 0 0 0-1.282H9.92a1.15 1.15 0 0 1-.874-.403 1.138 1.138 0 0 1-.297-.77c0-.4.19-.679.344-.836.22-.222.515-.344.827-.344h4.103v2.726a.64.64 0 0 0 .64.641h.697v11.097zm6.72-14.464c.313 0 .606.122.823.339.159.162.348.44.348.84 0 .288-.102.554-.304.78-.216.25-.533.394-.867.394h-2.293a.64.64 0 0 0 0 1.282h2.293c.498 0 .972-.159 1.37-.431.853.687 1.46 1.476 2.185 2.492.617.895 1.043 2.73 1.17 5.037.088 1.605.102 2.871.041 3.703-.537.048-1.655.038-2.588.03a198.86 198.86 0 0 0-1.162-.01v-3.766a.64.64 0 1 0-1.28 0v3.767l-2.162.006-1.413.004-1.601-.009V37.24h.697a.64.64 0 0 0 .64-.642v-2.726h4.103zm6.702-7.658c-.494.316-1.023.256-1.487.202-.427-.047-.96-.11-1.273.34-1.445 2.083-2.258 2.788-3.25 3.36-2.203 1.27-5.129 1.383-5.158 1.384-.045.002-.084.02-.126.03-.05-.012-.097-.03-.15-.03a.64.64 0 0 0-.64.64v3.817h-1.394V32.14a.64.64 0 0 0-.64-.641c-.027 0-.049.011-.074.015-.022-.003-.04-.014-.061-.015-.026-.001-2.607-.1-4.815-1.374-1.145-.66-2.204-1.368-3.592-3.37-.312-.45-.845-.387-1.273-.34-.466.055-.994.114-1.49-.203-1.024-.645-1.535-1.527-1.302-2.246.184-.57.79-.93 1.624-1.01l.22.458.159.328a.639.639 0 0 0 1.186-.084c.302-.95.408-1.886.51-2.793l.073-.62c.11-.892.344-1.857.57-2.792l.11-.458c.017-.067.032-.135.048-.204.02-.009.04-.02.059-.03.357-.212.711-.396 1.06-.578.793-.413 1.61-.84 2.384-1.538.1.244.344.425.62.4h.002c5.162-.22 8.464-2.028 9.834-3.646.126-.148.24-.3.342-.45l.343.941c.01.028.023.058.037.084.411.779 1.87 3.362 3.375 3.885a.822.822 0 0 0 .726-.083l.06.367c.047.288.087.525.1.66.005.058 1.107 6.193 1.637 6.531.167.106.375.13.562.063.279-.1.497-.26.678-.45.883.063 1.52.43 1.71 1.02.233.718-.278 1.6-1.304 2.246z" opacity=".75"/></svg>