<svg xmlns="http://www.w3.org/2000/svg" xmlns:xlink="http://www.w3.org/1999/xlink" width="172" height="172"><defs><linearGradient id="b" x1="50%" x2="50%" y1="100%" y2="34.246%"><stop offset="0%" stop-color="#EEE"/><stop offset="100%" stop-color="#D7D5D5"/></linearGradient><circle id="a" cx="86" cy="86" r="86"/><radialGradient id="d" cy="-2.676%" r="104.734%" fx="50%" fy="-2.676%" gradientTransform="scale(-.47765 -1) rotate(83.848 -.303 -.861)"><stop offset="0%" stop-color="#583D37"/><stop offset="100%" stop-color="#EDCFBB"/></radialGradient></defs><g fill="none" fill-rule="evenodd" opacity=".981"><mask id="c" fill="#fff"><use xlink:href="#a"/></mask><use fill="url(#b)" fill-rule="nonzero" xlink:href="#a"/><g mask="url(#c)"><path fill="#5D1230" fill-rule="nonzero" d="M41 130h87c11.598 0 21 9.402 21 21v21H20v-21c0-11.598 9.402-21 21-21z"/><path fill="url(#d)" fill-rule="nonzero" d="M41.177 100c5.334 12.667 2 21.333-10 26-12 4.667-4.03 8.667 33.303 10 30.61-1.333 44.611-5.333 32.611-10s-15.333-13.333-10-26H41.177z" transform="translate(20 5)"/><path fill="#EDCFBB" fill-rule="nonzero" d="M86.5 130c11.418 0 22.006-11.321 28.5-23 4.656-8.374 6-15.583 6-27 0-12.425 1.198-28.942-4-40-6.238-13.272-19.805-20-30.5-20-10.936 0-24.988 8.406-31.5 22-5.163 10.778-4 25.41-4 37.5 0 12.17 2.775 22.88 8 31.5 6.512 10.743 16.622 19 27.5 19z"/><path fill="#B58077" fill-rule="nonzero" d="M87.5 91c4.694 0 8.5-1.343 8.5-3 0-1.01-.832-1.368-3-1.621C90.832 86.126 89.332 88 87.5 88c-2.348 0-4.474-1.914-6.012-1.621C79.951 86.672 79 87.172 79 88c0 1.657 3.806 3 8.5 3z"/><path fill="#9B7169" fill-rule="nonzero" d="M50 76c3.06 9.316 5.726 15.65 8 19 2.274 3.35 5.94 6.35 11 9 .427 6.545 1.76 10.878 4 13 1.652 1.565 4.346 5.38 9 5 1.105-.09 3.105-1.424 6-4 4 4 7.667 5 11 3s5.333-7 6-15c3.333-2 6.333-5.333 9-10s5.667-11 9-19c-2.667 16.667-6 28-10 34-6 9-17.5 20-26.5 20S68 125 60 113c-5.333-8-8.667-20.333-10-37z"/><path fill="#EDCFBB" fill-rule="nonzero" d="M51.332 94c3.545-1.813 0-5.201 0-11S53.575 70.192 50 69c-3-1-4-1-4 7 0 2.478 0 9 1 12 .84 2.52 2.377 7 4.332 6z"/><path stroke="#B58077" stroke-linecap="round" d="M50 75c-1.333-4.667-2.333-5.333-3-2M51 78c-2.667 2.667-2.667 5.333 0 8"/><path fill="#EDCFBB" fill-rule="nonzero" d="M120.668 94c-3.545-1.813 0-5.201 0-11S118.425 70.192 122 69c3-1 4-1 4 7 0 2.478 0 9-1 12-.84 2.52-2.377 7-4.332 6z"/><path stroke="#B58077" stroke-linecap="round" d="M122 75c1.333-4.667 2.333-5.333 3-2M121 78c2.667 2.667 2.667 5.333 0 8"/><path fill="#574D4F" fill-rule="nonzero" d="M53 73c-1 1-2.374-2.448-3-5-2.908-11.845-.903-24.387 5-34 5.637-9.18 12.205-11.056 18-13 5.27-1.768 9.761-4 15-4 11 0 16.622.162 27 14 6 8 7.498 19.66 8 31 .334 7.56-.332 10.56-2 9-.673-3.888-1.34-6.888-2-9-.99-3.168-1.576-.728-4-8s2-5.56-3-15c-3.333-6.293-12-10.293-26-12-12.667 2.667-20.667 6.333-24 11-5 7-2.414 11.77-4 16-1.586 4.23-4.025 4.1-5 8-.975 3.9 1 10 0 11z"/><path fill="#46494F" fill-rule="nonzero" d="M59.068 23.149c-3.584 6.362-2.51 10.958 3.225 13.786 8.602 4.241 40.86-4.242 47.31-9.545 3.231-2.655 6.452-6.848 3.227-13.785C110.414 8.41 103.47 5.875 92 6c.808.828-.938 3.01-5.239 6.544-2.357 1.938-6.196 3.634-11.516 5.089-2.924.799-8.316 2.638-16.177 5.516z"/><path fill="#B58077" fill-rule="nonzero" d="M100.367 99.1c-6.946 3.933-13.545 5.267-19.796 4-4.958-1.005-5.348-3-4.167-3 2.083 0 6.874 1.45 9.377 1.45 2.778 0 7.64-.817 14.586-2.45z"/><path fill="#9B7169" fill-rule="nonzero" d="M83 91c-2 2.667-4.667 4.333-8 5-3.333.667-6.333 6.333-9 17 .667 2.667 1.333 3.333 2 2 1-2 1-12 6-14s8-1 11-5c2-2.667 1.333-4.333-2-5zM91.125 91c2 2.667 4.667 4.333 8 5 3.333.667 6.333 6.333 9 17-.667 2.667-1.333 3.333-2 2-1-2-1-12-6-14s-8-1-11-5c-2-2.667-1.333-4.333 2-5zM82 106.28c0-2.423 3.93.807 5.503.807 1.571 0 5.365-4.1 5.498-.807.134 3.292-2.71 11.305-5.107 11.305-2.397 0-5.894-8.883-5.894-11.305z"/><g transform="translate(60 60)"><ellipse cx="13" cy="9.5" fill="#63683D" fill-rule="nonzero" rx="3" ry="2.5"/><path stroke="#92665F" stroke-linecap="round" d="M4 11c5.333-5.333 10.667-5.333 16 0"/><path fill="#9B7169" fill-rule="nonzero" d="M1 7c.19.667 4.407-3.117 9-3.5S16 5 19 5c2 0 3-.667 3-2L9 0C3.54 4.222.873 6.556 1 7z"/></g><g transform="matrix(-1 0 0 1 115 60)"><ellipse cx="13" cy="9.5" fill="#63683D" fill-rule="nonzero" rx="3" ry="2.5"/><path stroke="#92665F" stroke-linecap="round" d="M4 11c5.333-5.333 10.667-5.333 16 0"/><path fill="#9B7169" fill-rule="nonzero" d="M1 7c.19.667 4.407-3.117 9-3.5S16 5 19 5c2 0 3-.667 3-2L9 0C3.54 4.222.873 6.556 1 7z"/></g><path stroke="#574D4F" d="M60 63c-2 1.202-2.489 9.76 2 14s14 3 16 2 9-8.798 5-13-21-4.202-23-3zM115.747 63c2 1.202 2.488 9.76-2 14-4.49 4.24-14 3-16 2s-9-8.798-5-13 21-4.202 23-3z"/><path stroke="#574D4F" stroke-linecap="round" d="M84 69c2.667-2 5-2 7 0M58 67l-7-2M118 67l4.5-1"/></g></g></svg>