<svg xmlns="http://www.w3.org/2000/svg" width="66" height="50"><g fill="#000" fill-rule="evenodd" opacity=".75"><ellipse cx="25.743" cy="7.713" rx="1" ry="1" transform="rotate(-20.34 25.743 7.713)"/><path fill-rule="nonzero" d="M65.29 30.714c-.34-1.507-2.838-1.75-3.804-1.528-.126.032-.25.075-.369.128a9.343 9.343 0 0 0-.248-2.078h.163c.354 0 .704-.08 1.022-.236.901-.45 2.676-2.207 2.001-3.571-.674-1.365-3.143-1.058-4.052-.608-.344.174-.64.432-.858.75-.378-.48-.801-.923-1.264-1.321.32-.171.594-.416.802-.714.575-.836 1.278-3.236 0-4.122-1.277-.885-3.257.615-3.832 1.429 0 .036-.043.078-.064.121l-.475-1.943c.326.052.66.022.972-.085.823-.286 2.526-1.607 2.086-2.893a1.895 1.895 0 0 0-1.639-1.107 3.914 3.914 0 0 0-1.767.107c-.196.071-.38.172-.547.3l-.574-2.364c.388.18.824.228 1.242.135.837-.185 2.66-1.293 2.37-2.607a1.877 1.877 0 0 0-1.49-1.278 3.865 3.865 0 0 0-1.74-.086 1.994 1.994 0 0 0-.638.271 4.063 4.063 0 0 0-.355-.8c.38-.09.725-.288.994-.571a3.93 3.93 0 0 0 .802-1.564c.26-.66.132-1.41-.334-1.943a1.863 1.863 0 0 0-1.888-.186c-.56.19-1.07.504-1.49.921-.334.365-.524.84-.532 1.336a6.123 6.123 0 0 0-.816-.243c.222-.363.324-.788.29-1.214-.07-.864-.915-2.857-2.242-2.714a1.878 1.878 0 0 0-1.455 1.314 3.936 3.936 0 0 0-.333 1.729c.028.33.138.65.32.928a6.913 6.913 0 0 0-3.77 2.357 4.306 4.306 0 0 0-.955 3.878 4.276 4.276 0 0 0 2.638 2.987c.832.364 1.732.549 2.64.542h.284a19.774 19.774 0 0 0-.966 3.686l-1.59-1.136h-.035l-2.548-1.428a.711.711 0 0 0-.715.003.72.72 0 0 0 .006 1.247l1.1.607-.71.229a.717.717 0 0 0-.273 1.224.706.706 0 0 0 .713.133l1.923-.672 1.895 1.35a22.464 22.464 0 0 0-.142 2.222L44 21.157h-.078l-2.768-.878a.71.71 0 0 0-.89.467.716.716 0 0 0 .464.897l1.193.378-.653.365a.72.72 0 0 0-.006 1.247c.22.13.494.13.715.003l1.782-1 1.341.607c0 .593.064 1.186.135 1.786.426 3.885 1.064 6.6 2.044 8.75l-.866 1.092c-.043.065-.064.129-.085.129h-1.739c-.39 0-.589.479-.589.879v6.978h-2.129V35.88a1.075 1.075 0 0 0-.923-.879h-.496v-8.671a7.676 7.676 0 0 0-2.209-5.42 7.576 7.576 0 0 0-5.37-2.259c-.45 0-.9.04-1.342.121l-2.008-10.2c.075-.281.087-.577.035-.864h.078c.271 0 .54-.05.795-.143a2.32 2.32 0 0 0 1.32-1.207 4.756 4.756 0 0 0 .34-2.071 2.147 2.147 0 0 0-1.021-2.007 2.12 2.12 0 0 0-2.186.492 4.713 4.713 0 0 0-1.356 1.579c-.059.129-.106.263-.142.4a2.74 2.74 0 0 0-.361-.193l-.781-2.143a.715.715 0 0 0-.078-.128.952.952 0 0 0-.479-1.247.941.941 0 0 0-1.243.469.953.953 0 0 0 .451 1.256.719.719 0 0 0 0 .15l.533 1.372a2.75 2.75 0 0 0-1.725.978l-2.888 3.572a3.007 3.007 0 0 0 .089 4.139 2.96 2.96 0 0 0 4.112.09l.213-.18 1.831 8.63a7.59 7.59 0 0 0-1.512 4.814V35h-.922c-.39 0-.497.479-.497.879v6.978H21.29V35.83c0-.393-.27-.829-.667-.829h-1.462v-3.571c0-5.129-4.13-9.286-9.226-9.286C4.84 22.143.71 26.3.71 31.429v4.621c-.033.555.16 1.1.535 1.508.375.409.9.646 1.452.656.383 0 .851-.107.851-.278v8.25c0 .393.362.957.753.957h1.164v-.079c0 .766.304 1.499.846 2.036a2.83 2.83 0 0 0 2.035.821 2.829 2.829 0 0 0 2.02-.806c.54-.528.85-1.25.861-2.008v.043h2.044v-.079a2.894 2.894 0 0 0 2.885 2.904c1.593 0 2.885-1.3 2.885-2.904v.043h1.604c.39 0 .667-.557.667-.957v-1.871h2.838v1.95c0 .393.107.907.497.907h1.157v-.05a2.894 2.894 0 0 0 2.885 2.903c1.593 0 2.885-1.3 2.885-2.903h2.05v-.05a2.894 2.894 0 0 0 2.885 2.903c1.594 0 2.885-1.3 2.885-2.903h1.554a1.11 1.11 0 0 0 .923-.807v-1.95H44v1.95c0 .393.199.907.589.907h1.157v-.05a2.894 2.894 0 0 0 2.885 2.903c1.593 0 2.884-1.3 2.884-2.903h2.051v-.05a2.894 2.894 0 0 0 2.885 2.903c1.594 0 2.885-1.3 2.885-2.903h1.604c.407-.078.725-.398.802-.807V35.879c0-.315 0-.572-.71-.665V33.65c.31.08.626.14.944.179.186 0 .372-.019.554-.058.979-.2 3.13-1.528 2.76-3.057zm-4.662-6.628c.397-.17.825-.253 1.256-.243.31-.037.625.03.894.193.085.278-.653 1.343-1.348 1.685a.907.907 0 0 1-1.217-.417.918.918 0 0 1 .415-1.225v.007zm-6.55-9.336a.626.626 0 0 1 .361-.321c.196-.058.4-.085.604-.079.342-.019.684.05.993.2a2.468 2.468 0 0 1-1.192 1.079.622.622 0 0 1-.674-.177.632.632 0 0 1-.093-.695v-.007zM3.547 36.021a.712.712 0 0 1-.71.715.712.712 0 0 1-.709-.715V31.43c0-4.34 3.495-7.858 7.806-7.858 4.312 0 7.807 3.518 7.807 7.858V35H7.806v-1.779a2.136 2.136 0 0 0-2.129-2.142c-1.175 0-2.129.959-2.129 2.142v2.8zM6.388 35h-1.42v-1.779c0-.394.317-.714.71-.714.391 0 .71.32.71.714V35zm1.95 13.421a1.467 1.467 0 0 1-1.461-1.471c0-.813.654-1.471 1.462-1.471.807 0 1.462.658 1.462 1.471 0 .813-.655 1.471-1.462 1.471zm7.807 0a1.462 1.462 0 0 1-1.35-.908 1.478 1.478 0 0 1 .316-1.603 1.455 1.455 0 0 1 1.594-.32c.546.228.902.765.902 1.36 0 .813-.654 1.471-1.462 1.471zm3.726-2.707h-1.256c-.504-1.428-1.42-1.428-2.47-1.428-1.05 0-1.951 0-2.47 1.428h-2.838c-.504-1.428-1.42-1.428-2.47-1.428-1.05 0-1.98 0-2.498 1.428h-.901V36.43H19.87v9.285zM28.82 4.957a2.944 2.944 0 0 1 1.604-1.428h.042c.242.164.327 1.428 0 2.142a.906.906 0 0 1-1.206.436.917.917 0 0 1-.44-1.15zm-4.691 7.057l-.057.05a1.547 1.547 0 0 1-2.12-.072 1.572 1.572 0 0 1-.073-2.135l.05-.057 2.91-3.571c.238-.3.592-.482.972-.5h.07c.355-.001.695.14.945.392l.986.993a1.355 1.355 0 0 1-.1 2l-3.583 2.9zM26.968 26.3a6.154 6.154 0 0 1 1.362-4.071.718.718 0 0 0 .128-.643l-1.944-9.679 1.937-1.593 1.86 9.457a.719.719 0 0 0 0 .093c.118.356.49.56.85.465h.065a5.84 5.84 0 0 1 1.625-.229 6.154 6.154 0 0 1 4.375 1.823 6.235 6.235 0 0 1 1.806 4.406V35h-2.838v-2.557c0-1.775-1.43-3.214-3.194-3.214s-3.194 1.439-3.194 3.214V35h-2.838v-8.7zm4.258 8.7v-2.557A1.78 1.78 0 0 1 33 30.657c.98 0 1.774.8 1.774 1.786V35h-3.548zm-2.562 13.464a1.467 1.467 0 0 1-1.462-1.471c0-.813.654-1.472 1.462-1.472.807 0 1.462.66 1.462 1.472 0 .813-.655 1.471-1.462 1.471zm7.806 0a1.467 1.467 0 0 1-1.462-1.471c0-.813.655-1.472 1.462-1.472.808 0 1.462.66 1.462 1.472 0 .39-.154.764-.428 1.04a1.457 1.457 0 0 1-1.034.431zm3.982-2.75H38.94a2.836 2.836 0 0 0-2.484-1.474 2.836 2.836 0 0 0-2.484 1.474h-2.838a3.204 3.204 0 0 0-2.47-1.428c-1 .062-1.913.59-2.47 1.428h-.646V36.43h14.904v9.285zM56.029 19.7c.447-.643 1.604-1.214 1.86-1.093.255.122.077 1.493-.37 2.143a.907.907 0 0 1-1.594-.112.92.92 0 0 1 .104-.93V19.7zM53.19 8.821a.603.603 0 0 1 .384-.264c.099-.01.199-.01.298 0 .43-.01.854.1 1.227.314-.314.432-.76.748-1.27.9a.601.601 0 0 1-.626-.245.61.61 0 0 1-.013-.676v-.029zm-1.83-4.578a2.392 2.392 0 0 1 1.419-.643 2.46 2.46 0 0 1-.533 1.471.602.602 0 0 1-.855.033.612.612 0 0 1-.032-.861zM47.193 1.87c.38.374.63.864.71 1.393a.61.61 0 0 1-.554.657.608.608 0 0 1-.653-.557 2.468 2.468 0 0 1 .461-1.485l.036-.008zm-3.13 10.45a2.85 2.85 0 0 1-1.846-2.024 2.87 2.87 0 0 1 .703-2.654 5.494 5.494 0 0 1 3.016-1.857c.479-.121.97-.184 1.462-.186a5.053 5.053 0 0 1 2.066.421 2.85 2.85 0 0 1 1.856 2.03 2.87 2.87 0 0 1-.714 2.663 5.801 5.801 0 0 1-6.543 1.622v-.015zm2.533 12.515a24.802 24.802 0 0 1-.092-4.479l.852.607c.32.23.762.154.99-.168a.717.717 0 0 0-.167-.996l-1.497-1.064a18.118 18.118 0 0 1 1.37-4.822 6.94 6.94 0 0 0 3.548-2.143L53.73 20.6a.66.66 0 0 0 .035.114l.355.836a.62.62 0 0 0 .355.393 7.92 7.92 0 0 1 5.138 7.45V35h-2.888l.227-.25c.58-.85.8-1.899.61-2.913a3.873 3.873 0 0 0-1.625-2.487 4.743 4.743 0 0 0-6.593 1.279l-1.164 1.714a30.29 30.29 0 0 1-1.583-7.5v-.007zm3.918 6.521a3.308 3.308 0 0 1 4.62-.836 2.427 2.427 0 0 1 .646 3.393L55.007 35h-7.019l2.527-3.643zm-1.888 17.107a1.467 1.467 0 0 1-1.462-1.471c0-.813.655-1.472 1.462-1.472.808 0 1.462.66 1.462 1.472 0 .813-.654 1.471-1.462 1.471zm7.807 0a1.467 1.467 0 0 1-1.462-1.471c0-.813.654-1.472 1.462-1.472.807 0 1.461.66 1.461 1.472 0 .813-.654 1.471-1.461 1.471zm3.889-2.75h-1.42a2.836 2.836 0 0 0-2.484-1.474 2.836 2.836 0 0 0-2.484 1.474h-2.838a2.836 2.836 0 0 0-2.484-1.474 2.836 2.836 0 0 0-2.484 1.474h-.71V36.43h14.904v9.285zm1.916-13.335c-.234.057-.483-.122-.71-.25-.227-.129-.348 0-.404-.715h-.057s-.057.179-.057.136v-.243c0-.107.114-.214.177-.314a.965.965 0 0 1 .597-.407 2.18 2.18 0 0 1 .468-.043 2.494 2.494 0 0 1 1.653.493c.043.307-.915 1.171-1.667 1.343z"/><ellipse cx="46.661" cy="8.393" rx="1" ry="1"/><ellipse cx="4.559" cy="28.132" rx="1" ry="1" transform="rotate(-20.34 4.559 28.132)"/><path fill-rule="nonzero" d="M9.609 31.864a3.68 3.68 0 0 0 1.767-.5c1.746-.957 2.264-2.6 1.356-4.285-1.001-1.836-3.393-3.286-4.968-2.415-1.576.872-1.668 3.693-.667 5.529a2.838 2.838 0 0 0 2.512 1.671zm-1.185-5.928a.833.833 0 0 1 .404-.093 3.735 3.735 0 0 1 2.655 1.936c.198.364.794 1.428-.788 2.335-1.583.907-2.179-.228-2.378-.593-.688-1.271-.631-3.185.107-3.592v.007z"/></g></svg>